<?xml version="1.0" encoding="utf-8" ?>
<svg baseProfile="full" height="100%" version="1.1" viewBox="0,0,1000,300" width="100%" xmlns="http://www.w3.org/2000/svg" xmlns:ev="http://www.w3.org/2001/xml-events" xmlns:xlink="http://www.w3.org/1999/xlink"><defs /><rect fill="white" height="300" width="1000" x="0" y="0" /><path d="M0,0 M380.48944091796875,49.442317962646484 L380.31158447265625,50.117740631103516 L380.0230407714844,51.421905517578125 L379.6592712402344,53.375370025634766 L379.3088073730469,55.78468322753906 L379.0329895019531,58.508480072021484 L378.8755187988281,61.37388610839844 L378.853515625,64.2056884765625 L378.98382568359375,66.78614044189453 L379.22540283203125,68.89794158935547 L379.5195007324219,70.38278198242188 L379.771728515625,71.21682739257812 L379.9292297363281,71.54960632324219 M378.4958190917969,47.82514190673828 L378.5112609863281,48.62739562988281 L378.62176513671875,49.99882888793945 L378.92156982421875,51.788291931152344 L379.4864501953125,53.59489440917969 L380.3523864746094,55.16808319091797 L381.5166015625,56.318885803222656 L382.9229736328125,56.95222854614258 L384.5108642578125,56.99013900756836 L386.1918640136719,56.40448760986328 L387.84490966796875,55.21033477783203 L389.3642883300781,53.51658248901367 L390.6568908691406,51.516056060791016 L391.6535949707031,49.466888427734375 L392.3599853515625,47.61758804321289 L392.80218505859375,46.167938232421875 L393.0225524902344,45.260894775390625 L393.0730895996094,45.0 L392.9863586425781,45.44354248046875 L392.77447509765625,46.63222885131836 L392.4568176269531,48.5224494934082 L392.07281494140625,50.99821853637695 L391.6802673339844,53.86923599243164 L391.34527587890625,56.9207878112793 L391.14923095703125,59.960758209228516 L391.129150390625,62.7826042175293 L391.2745666503906,65.18515014648438 L391.48016357421875,66.86604309082031 L391.6513671875,67.7749252319336 M400.5049133300781,59.467140197753906 L400.399169921875,59.07870864868164 L400.1119689941406,58.57435607910156 L399.57061767578125,58.166419982910156 L398.7484130859375,58.128631591796875 L397.70001220703125,58.56463623046875 L396.524658203125,59.500553131103516 L395.3684997558594,60.877044677734375 L394.3862609863281,62.58613204956055 L393.722900390625,64.447998046875 L393.47174072265625,66.21833038330078 L393.6860046386719,67.66019439697266 L394.3446044921875,68.57737731933594 L395.36651611328125,68.86119079589844 L396.6251525878906,68.48574829101562 L397.9742126464844,67.49746704101562 L399.2795715332031,66.02175903320312 L400.4192199707031,64.23311614990234 L401.3123779296875,62.356353759765625 L401.92828369140625,60.63268280029297 L402.26910400390625,59.25547790527344 L402.37176513671875,58.35601806640625 L402.31793212890625,58.01152420043945 L402.168701171875,58.22626876831055 L401.9940490722656,58.99410629272461 L401.8641357421875,60.25786209106445 L401.8231506347656,61.87852096557617 L401.88861083984375,63.6770133972168 L402.12017822265625,65.45378875732422 L402.5299072265625,67.00907897949219 L403.1085510253906,68.2217788696289 L403.66796875,68.99729919433594 L404.07208251953125,69.37386322021484 M408.816650390625,48.86628723144531 L408.8647766113281,49.10067367553711 L408.913818359375,49.738006591796875 L408.9216613769531,50.92768096923828 L408.84356689453125,52.684783935546875 L408.6784362792969,54.90886688232422 L408.4503479003906,57.434844970703125 L408.18865966796875,60.070281982421875 L407.9334411621094,62.63731384277344 L407.7174072265625,64.9537353515625 L407.5570983886719,66.84619903564453 L407.4817810058594,68.19517517089844 L407.5138854980469,68.92059326171875 L407.66925048828125,68.99874877929688 L408.0023498535156,68.45980834960938 L408.55316162109375,67.37017059326172 L409.3321533203125,65.84680938720703 L410.332275390625,64.05706787109375 L411.50543212890625,62.167686462402344 L412.7728576660156,60.345741271972656 L414.03900146484375,58.73176574707031 L415.17108154296875,57.4166259765625 L416.0135498046875,56.485809326171875 L416.5052490234375,55.95128631591797 L416.6983337402344,55.727684020996094 M409.32666015625,63.907257080078125 L409.487548828125,64.36626434326172 L409.88043212890625,65.06153869628906 L410.5523376464844,65.86673736572266 L411.5184326171875,66.52904510498047 L412.71295166015625,66.96173858642578 L414.01556396484375,67.12015533447266 L415.0969543457031,67.1080551147461 L415.7911682128906,67.02105712890625 M419.119873046875,58.49897003173828 L419.1514892578125,58.7985725402832 L419.1880187988281,59.48728561401367 L419.2176208496094,60.63105392456055 L419.2248229980469,62.142974853515625 L419.2023620605469,63.86019515991211 L419.1685791015625,65.59720611572266 L419.1348876953125,67.19717407226562 L419.138916015625,68.48396301269531 L419.2080383300781,69.30827331542969 L419.3490905761719,69.59034729003906 L419.49871826171875,69.50830841064453 L419.6131896972656,69.28553009033203 M419.9993896484375,51.11920166015625 L419.978759765625,50.94121551513672 L419.99322509765625,50.794219970703125 L420.032958984375,50.717342376708984 L420.0880126953125,50.74970245361328 M424.15228271484375,58.82017517089844 L424.15057373046875,59.136924743652344 L424.1241455078125,59.81184768676758 L424.0491943359375,60.8813591003418 L423.9288024902344,62.259361267089844 L423.8070983886719,63.817623138427734 L423.722412109375,65.38449096679688 L423.71624755859375,66.8001708984375 L423.780517578125,67.93395233154297 L423.8758544921875,68.67290496826172 L423.9766845703125,68.95327758789062 L424.09002685546875,68.73382568359375 L424.2438049316406,67.98538970947266 L424.49468994140625,66.75160217285156 L424.87969970703125,65.16243743896484 L425.44232177734375,63.39090347290039 L426.2230224609375,61.63947677612305 L427.24005126953125,60.08320236206055 L428.4470520019531,58.83448791503906 L429.7398376464844,57.99326705932617 L430.9603271484375,57.633419036865234 L431.9629211425781,57.79425048828125 L432.6663513183594,58.485069274902344 L433.0487060546875,59.64982986450195 L433.14752197265625,61.20590591430664 L433.0587463378906,62.983192443847656 L432.895751953125,64.76624298095703 L432.75274658203125,66.15798950195312 L432.6788024902344,66.9926986694336 M441.0675048828125,61.85017013549805 L441.03985595703125,61.46786117553711 L440.8531188964844,60.9483528137207 L440.3912048339844,60.473388671875 L439.5948486328125,60.3150634765625 L438.525634765625,60.58641815185547 L437.32861328125,61.30299377441406 L436.2113952636719,62.35715103149414 L435.378173828125,63.59653091430664 L434.9801940917969,64.82207489013672 L435.09283447265625,65.85404205322266 L435.7043151855469,66.55709075927734 L436.72113037109375,66.84100341796875 L438.02166748046875,66.67361450195312 L439.4490966796875,66.08815002441406 L440.843505859375,65.17818450927734 L442.05999755859375,64.0809326171875 L442.9874267578125,62.95293045043945 L443.580078125,61.932308197021484 L443.86114501953125,61.13411331176758 L443.8954772949219,60.6544303894043 L443.7680969238281,60.56603240966797 L443.5733642578125,60.93125534057617 L443.37799072265625,61.78520202636719 L443.2474670410156,63.11796188354492 L443.217041015625,64.87506103515625 L443.287353515625,66.97515106201172 L443.423828125,69.32011413574219 L443.5750732421875,71.81179809570312 L443.65460205078125,74.31987762451172 L443.58026123046875,76.70490264892578 L443.2975769042969,78.82560729980469 L442.7756042480469,80.5741195678711 L442.0172119140625,81.88589477539062 L441.05096435546875,82.74076843261719 L439.9195556640625,83.1280517578125 L438.68170166015625,83.0605239868164 L437.44610595703125,82.56378173828125 L436.33599853515625,81.68666076660156 L435.4822998046875,80.5115737915039 L435.05828857421875,79.1014404296875 L435.1474609375,77.56674194335938 L435.72052001953125,76.04264068603516 L436.4368896484375,74.84524536132812 L437.0084228515625,74.11490631103516 M456.9425048828125,57.505096435546875 L456.9554138183594,57.7307243347168 L456.9639892578125,58.26335525512695 L456.9542236328125,59.19044494628906 L456.9082946777344,60.490657806396484 L456.827392578125,62.0762825012207 L456.7187805175781,63.7916145324707 L456.60089111328125,65.44666290283203 L456.49554443359375,66.86778259277344 L456.4196472167969,67.918212890625 L456.3787841796875,68.49658966064453 L456.3824462890625,68.54507446289062 L456.44146728515625,68.02664947509766 L456.58935546875,66.9477767944336 L456.8623352050781,65.3845443725586 L457.2925720214844,63.491641998291016 L457.88604736328125,61.45170593261719 L458.63165283203125,59.4573860168457 L459.49407958984375,57.66323471069336 L460.4168701171875,56.197628021240234 L461.33673095703125,55.1641845703125 L462.19293212890625,54.65349578857422 L462.9217529296875,54.70945739746094 L463.4815673828125,55.34283447265625 L463.8414306640625,56.50382614135742 L463.9804992675781,58.08327102661133 L463.9228515625,59.90523147583008 L463.72967529296875,61.72984313964844 L463.4877014160156,63.331119537353516 L463.28045654296875,64.52284240722656 L463.16900634765625,65.18943786621094 L463.175048828125,65.2844009399414 L463.3162841796875,64.80538177490234 L463.6151123046875,63.7723388671875 L464.11090087890625,62.31523895263672 L464.8174133300781,60.61977005004883 L465.7218017578125,58.922515869140625 L466.7603759765625,57.434207916259766 L467.8507385253906,56.30807113647461 L468.9007873535156,55.61878204345703 L469.83465576171875,55.41776657104492 L470.58135986328125,55.7177734375 L471.0976257324219,56.52153015136719 L471.36151123046875,57.76923751831055 L471.39508056640625,59.342140197753906 L471.26165771484375,61.07041931152344 L471.0467529296875,62.75563430786133 L470.83282470703125,64.23165893554688 L470.72076416015625,65.32376861572266 L470.7623291015625,65.9169921875 L470.974365234375,65.9795150756836 L471.2424621582031,65.74327087402344 L471.46221923828125,65.44029235839844 M474.580322265625,56.312744140625 L474.57806396484375,56.444969177246094 L474.58123779296875,56.791866302490234 L474.59613037109375,57.42037582397461 L474.6501770019531,58.333526611328125 L474.7727966308594,59.466087341308594 L475.0047912597656,60.70428466796875 L475.37127685546875,61.89980697631836 L475.90087890625,62.923606872558594 L476.5926513671875,63.645198822021484 L477.44384765625,63.96928024291992 L478.42681884765625,63.83572769165039 L479.4928283691406,63.22738265991211 L480.5776672363281,62.183753967285156 L481.62139892578125,60.822792053222656 L482.5495910644531,59.31525421142578 L483.2906799316406,57.84791564941406 L483.7991943359375,56.58818435668945 L484.0584716796875,55.663421630859375 L484.0980224609375,55.15408706665039 L483.9818420410156,55.1287841796875 L483.77471923828125,55.64745330810547 L483.51385498046875,56.736961364746094 L483.23321533203125,58.37453079223633 L482.9559326171875,60.494346618652344 L482.7074890136719,62.98250198364258 L482.4886474609375,65.71796417236328 L482.2736511230469,68.572265625 L481.995849609375,71.40373229980469 L481.596923828125,74.06291198730469 L481.04156494140625,76.40342712402344 L480.3545227050781,78.30436706542969 L479.5844421386719,79.6966781616211 L478.78948974609375,80.57270050048828 L478.0130615234375,80.97459411621094 L477.287353515625,80.98929595947266 L476.66229248046875,80.64134979248047 L476.2001953125,79.9759750366211 L475.95147705078125,79.06354522705078 L475.87664794921875,78.20598602294922 L475.9017333984375,77.60438537597656 M495.59246826171875,56.57282638549805 M494.47406005859375,58.63185119628906 L494.19390869140625,59.44438934326172 L493.7767333984375,60.752017974853516 L493.3289489746094,62.36530685424805 L493.035888671875,63.898155212402344 L492.9837951660156,65.18084716796875 L493.2176513671875,66.07353210449219 L493.740966796875,66.51111602783203 L494.5237121582031,66.43317413330078 L495.490478515625,65.84468078613281 L496.56494140625,64.82798767089844 L497.6417236328125,63.53120803833008 L498.6050720214844,62.12648010253906 L499.386474609375,60.800537109375 L499.94171142578125,59.7092399597168 L500.2478942871094,58.96441650390625 L500.33935546875,58.63882827758789 L500.26190185546875,58.77037811279297 L500.0635681152344,59.35915756225586 L499.8387451171875,60.375892639160156 L499.6864013671875,61.709747314453125 L499.6941223144531,63.19563293457031 L499.9346008300781,64.62823486328125 L500.44415283203125,65.82245635986328 L501.2061767578125,66.63887786865234 L502.1836242675781,66.9974136352539 L503.3006591796875,66.85310363769531 L504.46551513671875,66.20466613769531 L505.5657958984375,65.10043334960938 L506.50286865234375,63.65584945678711 L507.19476318359375,62.029048919677734 L507.5878601074219,60.37464904785156 L507.6914978027344,58.85337829589844 L507.57427978515625,57.58079528808594 L507.37835693359375,56.70622634887695 L507.217529296875,56.238609313964844 M515.6095581054688,58.751304626464844 L515.5919189453125,58.28680419921875 L515.4633178710938,57.590728759765625 L515.1478271484375,56.83198547363281 L514.60009765625,56.305747985839844 L513.82421875,56.140167236328125 L512.8847045898438,56.426353454589844 L511.87359619140625,57.162689208984375 L510.9091796875,58.30276870727539 L510.13165283203125,59.729576110839844 L509.6585388183594,61.280479431152344 L509.55218505859375,62.747474670410156 L509.83050537109375,63.95477294921875 L510.45220947265625,64.76288604736328 L511.3573303222656,65.09264373779297 L512.4594116210938,64.91606140136719 L513.6416015625,64.24559020996094 L514.7915649414062,63.137271881103516 L515.81298828125,61.70508575439453 L516.6336669921875,60.113929748535156 L517.232177734375,58.56128692626953 L517.6063232421875,57.22291564941406 L517.7667236328125,56.213035583496094 L517.7537841796875,55.58934783935547 L517.61376953125,55.37483596801758 L517.3877563476562,55.59397888183594 L517.1179809570312,56.25901794433594 L516.841064453125,57.342262268066406 L516.5921630859375,58.747398376464844 L516.432861328125,60.324981689453125 L516.4169921875,61.90973663330078 L516.5707397460938,63.36503982543945 L516.9429931640625,64.54330444335938 L517.5325927734375,65.34505462646484 L518.2955322265625,65.72731018066406 L519.0004272460938,65.80313110351562 L519.49072265625,65.72988891601562 M523.3179931640625,56.610965728759766 L523.2581787109375,56.576744079589844 L523.133056640625,56.68931198120117 L522.9463500976562,57.079769134521484 L522.7328491210938,57.83641052246094 L522.560546875,58.89966583251953 L522.5025634765625,60.15107727050781 L522.6189575195312,61.425079345703125 L522.9492797851562,62.578521728515625 L523.5111083984375,63.464439392089844 L524.2889404296875,63.964134216308594 L525.26123046875,63.99677276611328 L526.3834228515625,63.551109313964844 L527.5714111328125,62.677494049072266 L528.7252807617188,61.4935417175293 L529.7373046875,60.15631866455078 L530.5183715820312,58.84739303588867 L531.0322265625,57.72406005859375 L531.3033447265625,56.917938232421875 L531.3782958984375,56.51468276977539 L531.3218994140625,56.5628547668457 L531.180908203125,57.09360122680664 L530.998779296875,58.12082290649414 L530.8154296875,59.60060501098633 L530.6787109375,61.465335845947266 L530.6211547851562,63.62859344482422 L530.633056640625,65.99003601074219 L530.6740112304688,68.447021484375 L530.6793212890625,70.88359069824219 L530.5615234375,73.16401672363281 L530.2510375976562,75.15740966796875 L529.7145385742188,76.77264404296875 L528.935546875,77.95313262939453 L527.9368286132812,78.66100311279297 L526.77197265625,78.88404083251953 L525.5020141601562,78.64911651611328 L524.2230224609375,77.94345092773438 L523.0700073242188,76.84700012207031 L522.1580200195312,75.50770568847656 L521.5762939453125,74.32516479492188 L521.3025512695312,73.54093933105469 M553.1285400390625,58.951778411865234 L553.0,58.47113037109375 L552.6668701171875,57.77233123779297 L552.0299072265625,57.04554748535156 L551.043701171875,56.599124908447266 L549.7197265625,56.58320236206055 L548.1377563476562,57.103614807128906 L546.4576416015625,58.15778732299805 L544.8699340820312,59.68323516845703 L543.5577392578125,61.51472473144531 L542.67626953125,63.43183898925781 L542.3345336914062,65.2210922241211 L542.552001953125,66.6906967163086 L543.2998046875,67.68659973144531 L544.5033569335938,68.09622955322266 L546.0414428710938,67.83243560791016 L547.7652587890625,66.8614501953125 L549.5439453125,65.23463439941406 L551.2415771484375,63.04911804199219 L552.7694091796875,60.472923278808594 L554.0890502929688,57.70390319824219 L555.1826782226562,54.95689392089844 L556.0250854492188,52.44515609741211 L556.6190185546875,50.351505279541016 L556.9716796875,48.78627014160156 L557.11767578125,47.81411361694336 L557.1141357421875,47.46390914916992 L557.0119018554688,47.761329650878906 L556.822021484375,48.73082733154297 L556.5471801757812,50.345558166503906 L556.1776733398438,52.509742736816406 L555.7298583984375,55.05548858642578 L555.2617797851562,57.79840087890625 L554.852294921875,60.48850631713867 L554.5584716796875,62.884307861328125 L554.3998413085938,64.60883331298828 L554.3425903320312,65.56875610351562 M563.7057495117188,57.94587326049805 L563.5018310546875,57.72158432006836 L563.0794067382812,57.468421936035156 L562.41455078125,57.330997467041016 L561.5476684570312,57.48612976074219 L560.5511474609375,57.99803161621094 L559.518798828125,58.866477966308594 L558.593994140625,60.04330825805664 L557.89697265625,61.4299201965332 L557.545166015625,62.8674430847168 L557.602294921875,64.17013549804688 L558.0909423828125,65.17382049560547 L558.9628295898438,65.75000762939453 L560.1314086914062,65.82999420166016 L561.4411010742188,65.38324737548828 L562.7230834960938,64.43846130371094 L563.818115234375,63.10409927368164 L564.60791015625,61.550621032714844 L565.0145263671875,59.981201171875 L565.0404663085938,58.58157730102539 L564.7415771484375,57.49401092529297 L564.2373046875,56.789520263671875 L563.677978515625,56.47139358520508 L563.23828125,56.41389083862305 L562.9815673828125,56.47474670410156 M569.5057983398438,57.05595016479492 L569.4059448242188,57.17719268798828 L569.1963500976562,57.55384063720703 L568.864013671875,58.30760192871094 L568.4554443359375,59.47081756591797 L568.0538330078125,60.96546936035156 L567.7645874023438,62.642967224121094 L567.6845703125,64.30867767333984 L567.8793334960938,65.77484893798828 L568.3663330078125,66.86746978759766 L569.1412963867188,67.44349670410156 L570.1734008789062,67.42326354980469 L571.3967895507812,66.79685974121094 L572.702880859375,65.63925170898438 L573.9603271484375,64.10700225830078 L575.03515625,62.401668548583984 L575.8383178710938,60.73578643798828 L576.3380126953125,59.29631042480469 L576.5638427734375,58.206871032714844 L576.5546875,57.55268478393555 L576.367919921875,57.383724212646484 L576.0604248046875,57.73265838623047 L575.697265625,58.60546112060547 L575.382568359375,59.936222076416016 L575.2361450195312,61.57075119018555 L575.3390502929688,63.30226135253906 L575.73486328125,64.89813232421875 L576.41845703125,66.17058563232422 L577.3460693359375,66.9972152709961 L578.4596557617188,67.30571746826172 L579.6658935546875,67.0713882446289 L580.849365234375,66.31543731689453 L581.8712158203125,65.1058120727539 L582.6250610351562,63.578086853027344 L583.0562133789062,61.90922164916992 L583.1593627929688,60.285579681396484 L582.9878540039062,58.87472152709961 L582.6551513671875,57.792049407958984 L582.2777709960938,57.08320617675781 L581.9835205078125,56.7150764465332 L581.822509765625,56.585548400878906 M587.7734375,57.23067855834961 L587.69189453125,57.637638092041016 L587.5106201171875,58.448421478271484 L587.2216186523438,59.66973114013672 L586.8671875,61.166221618652344 L586.520263671875,62.79548263549805 L586.2413330078125,64.38166046142578 L586.0708618164062,65.76776885986328 L586.017822265625,66.81804656982422 L586.0734252929688,67.41999816894531 L586.2313232421875,67.52787780761719 L586.4928588867188,67.13460540771484 L586.8687744140625,66.259521484375 L587.3510131835938,64.98065185546875 L587.9273681640625,63.42866897583008 L588.598876953125,61.765811920166016 L589.3717651367188,60.18911361694336 L590.2412109375,58.859161376953125 L591.2091674804688,57.87668991088867 L592.2310180664062,57.293357849121094 L593.234619140625,57.12520980834961 L594.15283203125,57.36884307861328 L594.9054565429688,58.0228271484375 L595.4169921875,59.054141998291016 L595.6605224609375,60.38286209106445 L595.65869140625,61.88210678100586 L595.4779052734375,63.39812088012695 L595.2214965820312,64.79891967773438 L595.0142822265625,65.94025421142578 L594.9474487304688,66.71192169189453 L595.0619506835938,67.0594482421875 L595.2639770507812,67.10250854492188 L595.451171875,66.99932098388672 M603.5062255859375,47.72384262084961 L603.3970947265625,48.299102783203125 L603.1979370117188,49.382545471191406 L602.9196166992188,50.97077560424805 L602.59716796875,52.890098571777344 L602.2548828125,55.0421142578125 L601.9159545898438,57.31292724609375 L601.624755859375,59.59815216064453 L601.4146728515625,61.771995544433594 L601.3002319335938,63.67805480957031 L601.2587890625,65.17201232910156 L601.2543334960938,66.18816375732422 L601.25341796875,66.6718978881836 L601.244873046875,66.65155792236328 L601.2205810546875,66.22492980957031 L601.1923217773438,65.68199157714844 L601.167236328125,65.24267578125 M598.3960571289062,58.91952896118164 L598.7149658203125,58.914756774902344 L599.3798217773438,58.926673889160156 L600.43603515625,58.95100021362305 L601.837158203125,58.98036193847656 L603.5406494140625,58.98641586303711 L605.4349975585938,58.952720642089844 L607.3439331054688,58.863948822021484 L609.0640258789062,58.73447036743164 L610.4156494140625,58.57051467895508 L611.204345703125,58.43330383300781 L611.518310546875,58.3468017578125 L611.5361328125,58.31709671020508 M611.877197265625,60.0260009765625 L611.749267578125,59.927303314208984 L611.5091552734375,59.834327697753906 L611.1301879882812,59.843929290771484 L610.6298217773438,60.088191986083984 L610.0203247070312,60.640357971191406 L609.3742065429688,61.51811218261719 L608.7958984375,62.65885543823242 L608.42919921875,63.956825256347656 L608.3709716796875,65.25044250488281 L608.6995239257812,66.38180541992188 L609.4193115234375,67.21434020996094 L610.4902954101562,67.65966796875 L611.8212890625,67.6606674194336 L613.2717895507812,67.1952133178711 L614.6513671875,66.29180908203125 L615.7672729492188,65.03881072998047 L616.44287109375,63.58537673950195 L616.5811767578125,62.11125183105469 L616.1791381835938,60.78824996948242 L615.330322265625,59.73301315307617 L614.2413330078125,59.01111602783203 L613.1389770507812,58.60231399536133 L612.236572265625,58.44430160522461 L611.750732421875,58.44434356689453 L611.7733154296875,58.52640914916992 L612.2772216796875,58.635616302490234 L612.94140625,58.731807708740234 L613.48388671875,58.79178237915039 M620.822021484375,58.09918975830078 L620.780517578125,58.07362365722656 L620.6715087890625,58.15452575683594 L620.4635620117188,58.45291519165039 L620.1671142578125,59.07893371582031 L619.8140258789062,60.047218322753906 L619.4503173828125,61.2912483215332 L619.1505737304688,62.70119857788086 L618.9710693359375,64.14446258544922 L618.9442138671875,65.46538543701172 L619.0829467773438,66.54546356201172 L619.3670043945312,67.29342651367188 L619.7835693359375,67.63243103027344 L620.342041015625,67.52803802490234 L621.0400390625,66.9699478149414 L621.8536376953125,65.99539947509766 L622.7147827148438,64.7160873413086 L623.5242309570312,63.32412338256836 L624.1898803710938,62.01454544067383 L624.657958984375,60.934173583984375 L624.9227294921875,60.19493103027344 L625.0013427734375,59.85306167602539 L624.9505615234375,59.94282913208008 L624.8223876953125,60.49594497680664 L624.6640625,61.490516662597656 L624.5365600585938,62.79978942871094 L624.51220703125,64.27787017822266 L624.64599609375,65.72021484375 L624.992919921875,66.9543685913086 L625.564697265625,67.85748291015625 L626.323486328125,68.34811401367188 L627.214111328125,68.36494445800781 L628.161865234375,67.90052032470703 L629.076416015625,66.97244262695312 L629.8709106445312,65.67122650146484 L630.4776611328125,64.1403579711914 L630.8681030273438,62.52919387817383 L631.073974609375,61.01054382324219 L631.1568603515625,59.72220230102539 L631.17919921875,58.8300666809082 L631.1826171875,58.351810455322266 M635.6123046875,58.15811538696289 L635.6246948242188,58.26701736450195 L635.62744140625,58.58330535888672 L635.5946044921875,59.19536590576172 L635.491455078125,60.134639739990234 L635.2994384765625,61.35790252685547 L635.035400390625,62.76704406738281 L634.7427978515625,64.22651672363281 L634.47509765625,65.58407592773438 L634.2761840820312,66.70480346679688 L634.1650390625,67.49214935302734 L634.14013671875,67.88164520263672 L634.2080078125,67.83160400390625 L634.3811645507812,67.32179260253906 L634.6731567382812,66.35964965820312 L635.0952758789062,65.03319549560547 L635.6533813476562,63.47832489013672 L636.3438720703125,61.862762451171875 L637.1580810546875,60.33449172973633 L638.0772705078125,59.02405548095703 L639.0791015625,58.01868438720703 L640.130859375,57.39308547973633 L641.193115234375,57.18702697753906 L642.2071533203125,57.41422653198242 L643.1085205078125,58.0482063293457 L643.81689453125,59.04939270019531 L644.2762451171875,60.331787109375 L644.4697875976562,61.78302764892578 L644.4487915039062,63.30681610107422 L644.3013916015625,64.81268310546875 L644.152099609375,66.2309341430664 L644.086669921875,67.51692962646484 L644.1646728515625,68.60334777832031 L644.385498046875,69.41239929199219 L644.7242431640625,69.92402648925781 L645.0482177734375,70.1709213256836 L645.27880859375,70.24107360839844 " fill="none" stroke="black" stroke-linecap="round" stroke-width="2" /><path d="M0,0 M448.6989440917969,105.52059936523438 L448.6908874511719,105.56690216064453 L448.7061462402344,105.8295669555664 L448.7607116699219,106.49470520019531 L448.87139892578125,107.71661376953125 L449.0389404296875,109.5390853881836 L449.26165771484375,111.91300201416016 L449.5365295410156,114.70061492919922 L449.8758544921875,117.72118377685547 L450.2861022949219,120.74476623535156 L450.76617431640625,123.50900268554688 L451.296142578125,125.76433563232422 L451.8541564941406,127.32331848144531 L452.4133605957031,128.07839965820312 L452.9651184082031,128.01844787597656 L453.513916015625,127.18914794921875 L454.0614013671875,125.70085144042969 L454.5882263183594,123.73432922363281 L455.0753479003906,121.51800537109375 L455.4908447265625,119.31147003173828 L455.8055419921875,117.34906768798828 L456.0081481933594,115.8294906616211 L456.1341552734375,114.91314697265625 L456.2200927734375,114.68183135986328 L456.3233337402344,115.15141296386719 L456.485595703125,116.29596710205078 L456.7203674316406,117.99302673339844 L457.0435791015625,120.08612823486328 L457.5028076171875,122.37823486328125 L458.1155090332031,124.61229705810547 L458.8773193359375,126.54247283935547 L459.7354736328125,128.0010223388672 L460.5906982421875,128.8806915283203 L461.34375,129.16378784179688 L461.9456787109375,128.86314392089844 L462.38134765625,127.97305297851562 L462.6789855957031,126.49407958984375 L462.8918151855469,124.49687957763672 L463.0602722167969,122.10669708251953 L463.19781494140625,119.50054931640625 L463.30084228515625,116.85457611083984 L463.3368835449219,114.30892944335938 L463.28582763671875,111.97526550292969 L463.138427734375,109.9491195678711 L462.90771484375,108.32843017578125 L462.64007568359375,107.19099426269531 L462.391845703125,106.5527114868164 L462.21331787109375,106.30316162109375 L462.12408447265625,106.2813720703125 M472.6558532714844,118.57645416259766 L472.51715087890625,118.08484649658203 L472.21356201171875,117.3603515625 L471.6832275390625,116.60173034667969 L470.9206848144531,116.14306640625 L469.95123291015625,116.16895294189453 L468.8358154296875,116.79057312011719 L467.6858215332031,118.00700378417969 L466.65338134765625,119.74222564697266 L465.8741455078125,121.80575561523438 L465.4710693359375,123.9420394897461 L465.51251220703125,125.88188171386719 L465.9794006347656,127.38822174072266 L466.79901123046875,128.287353515625 L467.8620300292969,128.49159240722656 L469.03411865234375,127.96733856201172 L470.201904296875,126.76741027832031 L471.2731628417969,125.0305404663086 L472.1639099121094,122.97650909423828 L472.8249206542969,120.868896484375 L473.248291015625,118.97306060791016 L473.4421081542969,117.48085021972656 L473.4612731933594,116.53216552734375 L473.37445068359375,116.19598388671875 L473.23565673828125,116.490234375 L473.10040283203125,117.40620422363281 L473.01556396484375,118.86831665039062 L473.00726318359375,120.72727966308594 L473.1328430175781,122.8046646118164 L473.4205017089844,124.85204315185547 L473.8650207519531,126.63676452636719 L474.3097839355469,127.89248657226562 L474.6354064941406,128.56961059570312 M478.9016418457031,106.62501525878906 L478.8583679199219,106.73014068603516 L478.8014831542969,107.160400390625 L478.744384765625,108.10283660888672 L478.71044921875,109.64019775390625 L478.70074462890625,111.69127655029297 L478.7181091308594,114.11387634277344 L478.7686767578125,116.73400115966797 L478.8665771484375,119.40382385253906 L479.0126953125,121.93256378173828 L479.20233154296875,124.1204833984375 L479.3755187988281,125.65863800048828 L479.49346923828125,126.4941177368164 M483.3878173828125,106.91081237792969 L483.34613037109375,107.11349487304688 L483.26666259765625,107.69815826416016 L483.14715576171875,108.8114013671875 L483.0202941894531,110.47836303710938 L482.921142578125,112.59539794921875 L482.8808898925781,115.00321960449219 L482.9117431640625,117.53744506835938 L482.9933776855469,120.03243255615234 L483.0809631347656,122.32157135009766 L483.1681823730469,124.25959014892578 L483.2372131347656,125.75369262695312 L483.31353759765625,126.70573425292969 L483.4229431152344,127.09800720214844 L483.5780029296875,126.9718246459961 L483.72723388671875,126.60313415527344 L483.845458984375,126.23689270019531 M488.8816833496094,116.80680084228516 L488.7903747558594,116.65493774414062 L488.5067443847656,116.58472442626953 L487.93914794921875,116.7674789428711 L487.0794982910156,117.35867309570312 L486.0343322753906,118.33628845214844 L484.9568786621094,119.58308410644531 L484.03125,120.9258804321289 L483.4173583984375,122.21730041503906 L483.2254638671875,123.32635498046875 L483.51519775390625,124.16305541992188 L484.2972412109375,124.69171142578125 L485.4979248046875,124.90669250488281 L486.9892578125,124.837158203125 L488.5964050292969,124.54956817626953 L490.157958984375,124.07454681396484 L491.5281066894531,123.45803833007812 L492.6285705566406,122.75987243652344 L493.360595703125,122.15943908691406 L493.7447814941406,121.76199340820312 M493.64556884765625,117.35237121582031 L493.604248046875,117.84725189208984 L493.56439208984375,118.74284362792969 L493.55914306640625,120.0045394897461 L493.61602783203125,121.45356750488281 L493.738525390625,122.97221374511719 L493.9078369140625,124.43148040771484 L494.1016540527344,125.64842224121094 L494.3016052246094,126.4532241821289 L494.496337890625,126.75741577148438 L494.64544677734375,126.71318054199219 L494.7386169433594,126.52937316894531 M493.6335144042969,109.08651733398438 L493.6739196777344,108.92793273925781 L493.7364807128906,108.7776870727539 L493.7989807128906,108.67935943603516 L493.8392028808594,108.67652130126953 M497.781494140625,116.59539794921875 L497.84625244140625,116.91169738769531 L497.9319152832031,117.55982208251953 L498.0143127441406,118.5734634399414 L498.07366943359375,119.87088012695312 L498.12823486328125,121.36247253417969 L498.1935729980469,122.9075698852539 L498.26800537109375,124.3465805053711 L498.3410949707031,125.54446411132812 L498.4072265625,126.38835144042969 L498.46917724609375,126.79505157470703 L498.5384826660156,126.72213745117188 L498.64715576171875,126.13980102539062 L498.8336486816406,125.04884338378906 L499.1533508300781,123.54772186279297 L499.6727600097656,121.79517364501953 L500.422119140625,119.97801971435547 L501.3734130859375,118.28418731689453 L502.4624938964844,116.87171936035156 L503.592041015625,115.8531265258789 L504.6600036621094,115.33313751220703 L505.58502197265625,115.3674545288086 L506.3134460449219,115.957763671875 L506.8016357421875,117.0379867553711 L507.063232421875,118.54812622070312 L507.1540832519531,120.33126068115234 L507.1537170410156,122.20375061035156 L507.1285400390625,123.72065734863281 L507.1181640625,124.66536712646484 M516.63427734375,118.77545928955078 L516.5232543945312,118.28196716308594 L516.1939697265625,117.63033294677734 L515.546875,117.05307006835938 L514.56689453125,116.8682632446289 L513.3529663085938,117.16915893554688 L512.0847778320312,117.93769836425781 L510.96142578125,119.0406723022461 L510.18939208984375,120.33881378173828 L509.9068603515625,121.64374542236328 L510.16387939453125,122.76936340332031 L510.93365478515625,123.56717681884766 L512.1227416992188,123.92839813232422 L513.5866088867188,123.7862548828125 L515.1668701171875,123.15249633789062 L516.6954956054688,122.10586547851562 L518.0053100585938,120.78439331054688 L518.972900390625,119.37779235839844 L519.5557861328125,118.07413482666016 L519.7927856445312,117.02188110351562 L519.7569580078125,116.33741760253906 L519.5527954101562,116.1079330444336 L519.2740478515625,116.38903045654297 L519.0032348632812,117.21635437011719 L518.8256225585938,118.56918334960938 L518.8170166015625,120.37028503417969 L518.9981079101562,122.50425720214844 L519.3433837890625,124.83444213867188 L519.763671875,127.21464538574219 L520.1378173828125,129.5080108642578 L520.34033203125,131.58102416992188 L520.288330078125,133.32022094726562 L519.9280395507812,134.64971923828125 L519.232666015625,135.52154541015625 L518.2279052734375,135.9460906982422 L516.9795532226562,135.98538208007812 L515.5936279296875,135.69342041015625 L514.2433471679688,135.16136169433594 L513.0895385742188,134.4978790283203 L512.2943115234375,133.90896606445312 L511.88134765625,133.51986694335938 M542.23876953125,109.38876342773438 L541.8619384765625,108.95549011230469 L541.2088623046875,108.37581634521484 L540.327392578125,107.84589385986328 L539.3493041992188,107.63412475585938 L538.3367919921875,107.82327270507812 L537.359130859375,108.4598388671875 L536.454833984375,109.54593658447266 L535.6959228515625,111.10457611083984 L535.1549072265625,113.11334991455078 L534.85888671875,115.48753356933594 L534.8213500976562,118.0951919555664 L535.0134887695312,120.77530670166016 L535.3704833984375,123.35922241210938 L535.821533203125,125.69209289550781 L536.313232421875,127.6518325805664 L536.75244140625,129.08018493652344 L537.07568359375,129.88662719726562 L537.2410888671875,130.06678771972656 L537.279296875,129.87969970703125 L537.2481079101562,129.5938262939453 M530.2791137695312,118.53755950927734 L530.4403076171875,118.52031707763672 L530.8510131835938,118.51138305664062 L531.5963745117188,118.51956939697266 L532.7267456054688,118.53675079345703 L534.1812744140625,118.53861999511719 L535.80810546875,118.50845336914062 L537.1741333007812,118.46270751953125 L538.048095703125,118.42237854003906 M547.8589477539062,116.47929382324219 L547.620849609375,116.21417236328125 L547.13916015625,115.87268829345703 L546.372802734375,115.61338806152344 L545.357421875,115.65776824951172 L544.1473999023438,116.1038589477539 L542.8745727539062,116.96724700927734 L541.711669921875,118.1673583984375 L540.8442993164062,119.55655670166016 L540.428955078125,120.94733428955078 L540.5294189453125,122.147216796875 L541.1284790039062,123.00552368164062 L542.1193237304688,123.40287780761719 L543.3660278320312,123.288818359375 L544.7128295898438,122.66407012939453 L546.0332641601562,121.59519958496094 L547.2041015625,120.23076629638672 L548.1337890625,118.79447174072266 L548.7557373046875,117.49102783203125 L549.0773315429688,116.49588775634766 L549.1448974609375,115.9226303100586 L549.0382690429688,115.80949401855469 L548.838134765625,116.17896270751953 L548.6132202148438,117.01800537109375 L548.4669189453125,118.25200653076172 L548.4791259765625,119.70459747314453 L548.6869506835938,121.1573715209961 L548.9694213867188,122.26737213134766 L549.2095947265625,122.90995025634766 M557.3330688476562,114.90816497802734 L556.9832153320312,114.65473175048828 L556.3097534179688,114.39803314208984 L555.318115234375,114.30903625488281 L554.1781005859375,114.56887817382812 L553.0821533203125,115.1697769165039 L552.26025390625,116.03350830078125 L551.9249267578125,117.04331970214844 L552.1950073242188,118.1072006225586 L553.06201171875,119.14644622802734 L554.4288940429688,120.12073516845703 L556.0719604492188,121.01461029052734 L557.7338256835938,121.83126068115234 L559.1536865234375,122.5749740600586 L560.0923461914062,123.23677062988281 L560.4015502929688,123.78706359863281 L560.0601806640625,124.20805358886719 L559.1280517578125,124.49002838134766 L557.7731323242188,124.6396484375 L556.1956176757812,124.6706771850586 L554.6347045898438,124.56059265136719 L553.3209228515625,124.28376007080078 L552.4155883789062,123.8448257446289 L551.93603515625,123.40068817138672 L551.7771606445312,123.07183837890625 M565.1665649414062,105.0 L565.26806640625,105.33146667480469 L565.41357421875,106.09051513671875 L565.554931640625,107.36235809326172 L565.6465454101562,109.09736633300781 L565.7039184570312,111.17496490478516 L565.765625,113.46403503417969 L565.8768920898438,115.8222885131836 L566.0585327148438,118.11344909667969 L566.2869262695312,120.18898010253906 L566.5250244140625,121.9146957397461 L566.740478515625,123.19174194335938 L566.9022827148438,123.94393920898438 L566.9881591796875,124.15140533447266 L566.9882202148438,123.87689971923828 L566.940673828125,123.41407012939453 L566.881103515625,123.0046615600586 " fill="none" stroke="black" stroke-linecap="round" stroke-width="2" /><path d="M0,0 M457.9214782714844,168.8948211669922 L457.9024658203125,169.66384887695312 L457.9023132324219,171.06686401367188 L457.9500732421875,173.0726318359375 L458.0811462402344,175.46629333496094 L458.28369140625,178.150634765625 L458.5290832519531,180.99241638183594 L458.7855529785156,183.85523986816406 L459.04498291015625,186.56224060058594 L459.30279541015625,188.92648315429688 L459.5675964355469,190.82456970214844 L459.8211364746094,192.1963653564453 L460.0214538574219,192.89964294433594 L460.1341247558594,192.87118530273438 L460.1592102050781,192.1543731689453 L460.129638671875,191.20562744140625 L460.0880432128906,190.41954040527344 M451.6354675292969,167.82229614257812 L451.8806457519531,167.652099609375 L452.5213317871094,167.375244140625 L453.70013427734375,167.03236389160156 L455.42376708984375,166.68775939941406 L457.59991455078125,166.34446716308594 L460.0547790527344,166.0115509033203 L462.6197814941406,165.68057250976562 L465.1173400878906,165.37623596191406 L467.3534851074219,165.1507110595703 L469.1503601074219,165.03164672851562 L470.33221435546875,165.0 L470.91827392578125,165.01971435546875 M455.58172607421875,180.57379150390625 L455.9221496582031,180.74090576171875 L456.66839599609375,180.8806610107422 L457.86846923828125,180.88063049316406 L459.4683837890625,180.6437530517578 L461.3154602050781,180.24716186523438 L463.21063232421875,179.8054656982422 L464.7185363769531,179.4634552001953 L465.6483459472656,179.2669219970703 M473.291259765625,179.16604614257812 L473.0444030761719,178.8435516357422 L472.5576171875,178.43626403808594 L471.7959899902344,178.1295166015625 L470.79718017578125,178.19093322753906 L469.60406494140625,178.7500762939453 L468.32061767578125,179.8404998779297 L467.1021423339844,181.38258361816406 L466.1388854980469,183.2200927734375 L465.5967102050781,185.1070098876953 L465.5615539550781,186.78895568847656 L466.0328369140625,188.04513549804688 L466.9230651855469,188.7080535888672 L468.1127624511719,188.6967010498047 L469.46392822265625,188.0064697265625 L470.857666015625,186.7037811279297 L472.17822265625,184.9322052001953 L473.34228515625,182.8915252685547 L474.27227783203125,180.8323211669922 L474.9439392089844,178.9951934814453 L475.35357666015625,177.5850830078125 L475.5338134765625,176.74522399902344 L475.5245361328125,176.545166015625 L475.400390625,176.99830627441406 L475.20867919921875,178.09600830078125 L475.0210266113281,179.7257080078125 L474.9027099609375,181.7173614501953 L474.89874267578125,183.84353637695312 L475.0782165527344,185.8513641357422 L475.4931640625,187.51893615722656 L476.119140625,188.729736328125 L476.7372131347656,189.43572998046875 L477.1883850097656,189.7404327392578 M484.7953796386719,177.1561737060547 L484.4390563964844,176.99122619628906 L483.76873779296875,176.8826904296875 L482.7891845703125,177.01693725585938 L481.6429443359375,177.59010314941406 L480.4838562011719,178.64984130859375 L479.4766540527344,180.13427734375 L478.7857666015625,181.88040161132812 L478.5457763671875,183.69923400878906 L478.8173522949219,185.382080078125 L479.613037109375,186.74864196777344 L480.88568115234375,187.68638610839844 L482.5756530761719,188.08184814453125 L484.54412841796875,187.9206085205078 L486.60107421875,187.28868103027344 L488.2645263671875,186.5477752685547 L489.300048828125,185.97430419921875 M489.09588623046875,181.9888916015625 L489.2063293457031,182.13790893554688 L489.52520751953125,182.29306030273438 L490.1531066894531,182.3500518798828 L491.1126708984375,182.17579650878906 L492.3401794433594,181.73406982421875 L493.69158935546875,181.0261993408203 L495.0151062011719,180.10235595703125 L496.1482849121094,179.034912109375 L496.95819091796875,177.9217529296875 L497.3348083496094,176.87246704101562 L497.2137451171875,176.00103759765625 L496.5852966308594,175.41848754882812 L495.5366516113281,175.23260498046875 L494.21441650390625,175.52349853515625 L492.79931640625,176.3033447265625 L491.4896240234375,177.5379180908203 L490.453125,179.12149047851562 L489.80126953125,180.90533447265625 L489.61407470703125,182.72506713867188 L489.9295654296875,184.43080139160156 L490.736572265625,185.8727569580078 L491.996826171875,186.95948791503906 L493.6002197265625,187.6449432373047 L495.44256591796875,187.8681640625 L497.3609313964844,187.634521484375 L499.1973876953125,187.02603149414062 L500.6031494140625,186.3473358154297 L501.4451904296875,185.83132934570312 M506.7379455566406,176.03213500976562 L506.6207275390625,175.76683044433594 L506.30657958984375,175.43064880371094 L505.7176513671875,175.17005920410156 L504.84912109375,175.1771240234375 L503.7824401855469,175.49810791015625 L502.6661376953125,176.12246704101562 L501.68701171875,176.976318359375 L501.0311279296875,177.9856414794922 L500.8442687988281,179.07284545898438 L501.21051025390625,180.1600341796875 L502.1358337402344,181.17144775390625 L503.546875,182.06903076171875 L505.29388427734375,182.83872985839844 L507.17938232421875,183.49732971191406 L508.98931884765625,184.07852172851562 L510.5170593261719,184.60289001464844 L511.60235595703125,185.0825958251953 L512.1427612304688,185.53741455078125 L512.0936889648438,185.986572265625 L511.4678039550781,186.44561767578125 L510.3349914550781,186.9104461669922 L508.8150634765625,187.35397338867188 L507.090576171875,187.74623107910156 L505.3590087890625,188.05807495117188 L503.8309326171875,188.28302001953125 L502.6504211425781,188.42637634277344 L501.8741455078125,188.50003051757812 L501.52728271484375,188.51882934570312 L501.5710754394531,188.50794982910156 L501.9205322265625,188.4779052734375 L502.3541259765625,188.4486541748047 L502.69915771484375,188.42916870117188 M523.3555297851562,177.573486328125 L523.3660888671875,177.88246154785156 L523.3809204101562,178.5606231689453 L523.4021606445312,179.70138549804688 L523.4223022460938,181.28549194335938 L523.4468994140625,183.283935546875 L523.4697265625,185.61968994140625 L523.4924926757812,188.19570922851562 L523.5073852539062,190.87648010253906 L523.521728515625,193.48788452148438 L523.5337524414062,195.81808471679688 L523.55419921875,197.6988525390625 L523.5877075195312,198.92689514160156 L523.6351318359375,199.40631103515625 L523.6854248046875,199.1781463623047 L523.72802734375,198.62840270996094 L523.7529907226562,198.09963989257812 M520.9507446289062,175.4064483642578 L521.1780395507812,175.02976989746094 L521.7259521484375,174.50363159179688 L522.680908203125,173.9876708984375 L524.0305786132812,173.7191619873047 L525.682373046875,173.76824951171875 L527.4794311523438,174.1603240966797 L529.2525634765625,174.86477661132812 L530.835693359375,175.84707641601562 L532.0697021484375,177.0521697998047 L532.8331909179688,178.4033203125 L533.0430297851562,179.80072021484375 L532.6809692382812,181.1526641845703 L531.8169555664062,182.37326049804688 L530.5855712890625,183.3883514404297 L529.1363525390625,184.15945434570312 L527.6210327148438,184.6412811279297 L526.1979370117188,184.83938598632812 L524.9923706054688,184.7984161376953 L524.1640625,184.6512451171875 L523.7310791015625,184.50608825683594 M538.325439453125,176.86497497558594 L538.2177124023438,176.5611572265625 L537.9931030273438,176.1384735107422 L537.6201782226562,175.73960876464844 L537.0975341796875,175.5974884033203 L536.4230346679688,175.83396911621094 L535.644287109375,176.51290893554688 L534.8399658203125,177.6056365966797 L534.1265258789062,179.03016662597656 L533.6314697265625,180.62432861328125 L533.4638671875,182.20481872558594 L533.6837768554688,183.56698608398438 L534.3192138671875,184.52854919433594 L535.331298828125,184.97032165527344 L536.6158447265625,184.85084533691406 L538.011962890625,184.19088745117188 L539.334228515625,183.0861053466797 L540.421142578125,181.66639709472656 L541.1787719726562,180.08749389648438 L541.5883178710938,178.54122924804688 L541.7090454101562,177.2053680419922 L541.6303100585938,176.197998046875 L541.4401245117188,175.58961486816406 L541.2213745117188,175.4134063720703 L541.0107421875,175.67355346679688 L540.826904296875,176.3837127685547 L540.7144775390625,177.5171356201172 L540.7059326171875,178.96255493164062 L540.865234375,180.56997680664062 L541.2391967773438,182.1439666748047 L541.812744140625,183.5057830810547 L542.3767700195312,184.45721435546875 L542.789794921875,184.97390747070312 M551.9967041015625,174.83148193359375 L551.705078125,174.5676727294922 L551.1342163085938,174.26121520996094 L550.2802124023438,174.05332946777344 L549.2820434570312,174.12335205078125 L548.2935791015625,174.47976684570312 L547.475341796875,175.08218383789062 L546.9794311523438,175.8485107421875 L546.9038696289062,176.71383666992188 L547.27392578125,177.59817504882812 L548.09033203125,178.47122192382812 L549.2636108398438,179.30728149414062 L550.6427001953125,180.10366821289062 L552.0480346679688,180.86328125 L553.2760009765625,181.57814025878906 L554.152587890625,182.2198486328125 L554.5745849609375,182.79856872558594 L554.4653930664062,183.3236846923828 L553.8117065429688,183.80332946777344 L552.661865234375,184.23880004882812 L551.1430053710938,184.6066131591797 L549.454345703125,184.86119079589844 L547.829833984375,184.98165893554688 L546.4542236328125,184.96096801757812 L545.520263671875,184.74400329589844 L545.1260375976562,184.31373596191406 L545.2830810546875,183.6861114501953 L545.7034912109375,183.0706329345703 L546.1223754882812,182.62628173828125 M560.9381103515625,173.454345703125 L560.788330078125,173.04690551757812 L560.3790283203125,172.5189666748047 L559.6299438476562,172.06004333496094 L558.5660400390625,171.91249084472656 L557.3200073242188,172.11521911621094 L556.0971069335938,172.63563537597656 L555.1157836914062,173.38040161132812 L554.5491943359375,174.27490234375 L554.5316162109375,175.22669982910156 L555.1129760742188,176.15066528320312 L556.267578125,177.0053253173828 L557.8819580078125,177.77630615234375 L559.7683715820312,178.4873504638672 L561.6996459960938,179.17269897460938 L563.4673461914062,179.85113525390625 L564.8877563476562,180.5159149169922 L565.8560791015625,181.1687774658203 L566.3056030273438,181.78839111328125 L566.2113647460938,182.36904907226562 L565.5755615234375,182.90342712402344 L564.439208984375,183.37083435058594 L562.8842163085938,183.7395782470703 L561.0545043945312,183.99685668945312 L559.098876953125,184.10107421875 L557.2139282226562,184.0513153076172 L555.5711669921875,183.86871337890625 L554.409423828125,183.65438842773438 L553.774169921875,183.48654174804688 " fill="none" stroke="black" stroke-linecap="round" stroke-width="2" /><path d="M0,0 M402.204345703125,229.82884216308594 L402.171142578125,230.06312561035156 L402.03631591796875,230.66070556640625 L401.7501220703125,231.75457763671875 L401.2815856933594,233.36465454101562 L400.6427307128906,235.44639587402344 L399.86419677734375,237.90634155273438 L398.9939270019531,240.61972045898438 L398.0820007324219,243.40667724609375 L397.2301025390625,246.03402709960938 L396.5177307128906,248.25697326660156 L396.00799560546875,249.90016174316406 L395.7712097167969,250.73526000976562 L395.8280334472656,250.68930053710938 L396.15380859375,249.8240966796875 L396.5657958984375,248.69589233398438 L396.90008544921875,247.77125549316406 M403.14556884765625,228.517578125 L403.3542785644531,228.06666564941406 L403.6761474609375,227.58547973632812 L404.07818603515625,227.364990234375 L404.5094909667969,227.74624633789062 L404.9987487792969,228.8068084716797 L405.5270080566406,230.51358032226562 L406.0799560546875,232.728271484375 L406.6217956542969,235.31903076171875 L407.1182861328125,238.09442138671875 L407.5622253417969,240.85650634765625 L407.943115234375,243.42138671875 L408.24053955078125,245.60841369628906 L408.4408874511719,247.27456665039062 L408.5450439453125,248.38084411621094 L408.54730224609375,248.9291534423828 L408.45745849609375,249.00926208496094 L408.2871398925781,248.74208068847656 L408.11077880859375,248.37135314941406 L407.9761657714844,248.06112670898438 M400.0187072753906,241.47146606445312 L400.26702880859375,241.38243103027344 L400.81878662109375,241.21763610839844 L401.80072021484375,240.977783203125 L403.15625,240.6985321044922 L404.7569885253906,240.40867614746094 L406.14593505859375,240.17987060546875 L407.0517883300781,240.03915405273438 M414.58135986328125,238.305419921875 L414.61114501953125,238.83705139160156 L414.6505126953125,239.80006408691406 L414.68084716796875,241.16299438476562 L414.6779479980469,242.7431640625 L414.647705078125,244.4290771484375 L414.5999450683594,246.07086181640625 L414.5621337890625,247.53738403320312 L414.55712890625,248.67868041992188 L414.5918884277344,249.3775177001953 L414.65533447265625,249.5496826171875 L414.75177001953125,249.16610717773438 L414.8919677734375,248.2458953857422 L415.10955810546875,246.8834991455078 L415.4714050292969,245.217041015625 L416.03302001953125,243.41513061523438 L416.823974609375,241.62783813476562 L417.8371276855469,239.9843292236328 L419.009765625,238.60098266601562 L420.23846435546875,237.57443237304688 L421.4210510253906,236.97613525390625 L422.457275390625,236.85972595214844 L423.28594970703125,237.2324676513672 L423.8791809082031,238.06129455566406 L424.24603271484375,239.28634643554688 L424.4147644042969,240.7890167236328 L424.4303894042969,242.4329071044922 L424.33148193359375,244.0812225341797 L424.191650390625,245.5910186767578 L424.0832824707031,246.84091186523438 L424.07318115234375,247.75732421875 L424.13531494140625,248.3010711669922 L424.2235107421875,248.54159545898438 M434.6438903808594,240.91920471191406 L434.4845886230469,240.4891357421875 L434.1108093261719,239.85391235351562 L433.4563293457031,239.2022705078125 L432.5252990722656,238.83074951171875 L431.36944580078125,238.87457275390625 L430.094482421875,239.3955841064453 L428.83502197265625,240.34922790527344 L427.75030517578125,241.65960693359375 L426.9719543457031,243.21485900878906 L426.5897521972656,244.87368774414062 L426.63470458984375,246.47544860839844 L427.1150207519531,247.852783203125 L428.0152587890625,248.83348083496094 L429.3105773925781,249.2801513671875 L430.9251708984375,249.0921173095703 L432.7276611328125,248.23936462402344 L434.5315246582031,246.76968383789062 L436.1900634765625,244.78067016601562 L437.6030578613281,242.4014892578125 L438.7378234863281,239.79025268554688 L439.60906982421875,237.1103515625 L440.2543029785156,234.53614807128906 L440.7049255371094,232.24049377441406 L441.01605224609375,230.35475158691406 L441.23272705078125,228.98019409179688 L441.37078857421875,228.1908416748047 L441.43609619140625,228.03652954101562 L441.42535400390625,228.55560302734375 L441.34454345703125,229.76202392578125 L441.2292785644531,231.59262084960938 L441.11517333984375,233.9165496826172 L441.025634765625,236.54954528808594 L440.9894104003906,239.28680419921875 L441.0157775878906,241.93389892578125 L441.1045227050781,244.33006286621094 L441.28106689453125,246.3074493408203 L441.5419921875,247.73435974121094 L441.8808898925781,248.56768798828125 L442.1999206542969,248.91961669921875 L442.4263000488281,248.97911071777344 M455.0467529296875,226.4185333251953 L455.0951843261719,226.67257690429688 L455.127197265625,227.23104858398438 L455.09228515625,228.1561279296875 L454.9610595703125,229.43087768554688 L454.7516174316406,231.01922607421875 L454.5104675292969,232.869873046875 L454.2615661621094,234.9170379638672 L454.01593017578125,237.07907104492188 L453.7608947753906,239.26026916503906 L453.4974060058594,241.38243103027344 L453.22021484375,243.3731231689453 L452.9503173828125,245.16346740722656 L452.70867919921875,246.65061950683594 L452.5429382324219,247.75904846191406 L452.45855712890625,248.43150329589844 L452.44134521484375,248.73638916015625 M459.9767761230469,225.0 L460.01519775390625,225.36769104003906 L460.0365905761719,226.03189086914062 L460.0365295410156,226.75074768066406 L460.0106201171875,227.28240966796875 M463.09967041015625,239.3397674560547 L463.022216796875,240.10105895996094 L462.9037170410156,241.36260986328125 L462.7595520019531,242.9702911376953 L462.62969970703125,244.5618133544922 L462.5298156738281,245.97781372070312 L462.46844482421875,247.08767700195312 L462.44683837890625,247.8001251220703 L462.4763488769531,248.02041625976562 L462.5672912597656,247.68084716796875 L462.77728271484375,246.75917053222656 L463.1678161621094,245.35256958007812 L463.801025390625,243.64447021484375 L464.7020568847656,241.8502655029297 L465.8356628417969,240.17274475097656 L467.10260009765625,238.77090454101562 L468.4071350097656,237.7527313232422 L469.64569091796875,237.1949920654297 L470.74786376953125,237.13865661621094 L471.6692199707031,237.59230041503906 L472.38006591796875,238.50477600097656 L472.8503723144531,239.78268432617188 L473.08123779296875,241.27896118164062 L473.09954833984375,242.80796813964844 L472.9657897949219,244.18289184570312 L472.7655029296875,245.26602172851562 L472.5872497558594,245.94471740722656 L472.503662109375,246.142333984375 L472.5711669921875,245.8068084716797 L472.8458557128906,244.93032836914062 L473.3747253417969,243.58731079101562 L474.19219970703125,241.94923400878906 L475.2893371582031,240.22174072265625 L476.6048583984375,238.60267639160156 L478.0340270996094,237.26162719726562 L479.4600524902344,236.32070922851562 L480.7801513671875,235.86312866210938 L481.9361877441406,235.9383087158203 L482.8835144042969,236.54762268066406 L483.5814208984375,237.6348114013672 L484.005859375,239.1108856201172 L484.14398193359375,240.848876953125 L484.0234375,242.6929473876953 L483.7186279296875,244.4937744140625 L483.34375,246.09725952148438 L483.0078125,247.36459350585938 L482.8063049316406,248.22329711914062 L482.73541259765625,248.6859588623047 L482.74755859375,248.85406494140625 M497.254638671875,229.0431365966797 L497.26995849609375,229.30242919921875 L497.27691650390625,229.89453125 L497.25579833984375,230.90943908691406 L497.1782531738281,232.33885192871094 L497.0321350097656,234.13861083984375 L496.8084411621094,236.21746826171875 L496.49859619140625,238.45118713378906 L496.126708984375,240.68797302246094 L495.744873046875,242.767578125 L495.4150390625,244.54086303710938 L495.1936340332031,245.90834045410156 L495.0992126464844,246.80029296875 L495.1094665527344,247.17611694335938 L495.20751953125,247.03126525878906 L495.3983459472656,246.38438415527344 L495.70556640625,245.2974395751953 L496.1728210449219,243.88406372070312 L496.8341064453125,242.28125 L497.6929931640625,240.63552856445312 L498.7344665527344,239.10304260253906 L499.9121398925781,237.82565307617188 L501.1506652832031,236.92457580566406 L502.3824157714844,236.48109436035156 L503.5281982421875,236.5257568359375 L504.4984130859375,237.0354766845703 L505.2373046875,237.9598388671875 L505.7007141113281,239.2300567626953 L505.8855285644531,240.75242614746094 L505.841552734375,242.4020233154297 L505.64105224609375,244.03797912597656 L505.34051513671875,245.5224609375 L505.0611267089844,246.70716857910156 L504.8969421386719,247.49037170410156 L504.9175109863281,247.84170532226562 L505.05279541015625,247.88888549804688 L505.2135925292969,247.7977752685547 M515.4454345703125,239.89552307128906 L515.254150390625,239.41053771972656 L514.843994140625,238.71583557128906 L514.1763305664062,238.00596618652344 L513.2823486328125,237.5755615234375 L512.2247924804688,237.5310516357422 L511.1003723144531,237.92774963378906 L510.0054016113281,238.73294067382812 L509.0451965332031,239.90220642089844 L508.32476806640625,241.3307647705078 L507.9388732910156,242.86862182617188 L507.9708557128906,244.334716796875 L508.457275390625,245.5641632080078 L509.3643798828125,246.41696166992188 L510.6021728515625,246.7958984375 L512.0445556640625,246.6713409423828 L513.5429077148438,246.0662384033203 L514.9337158203125,245.04261779785156 L516.0631103515625,243.71253967285156 L516.8153076171875,242.2152557373047 L517.127197265625,240.697998046875 L517.0506591796875,239.3507537841797 L516.7133178710938,238.3104705810547 L516.3370361328125,237.66278076171875 L516.0686645507812,237.36500549316406 M520.936767578125,236.82034301757812 L520.8756103515625,236.97300720214844 L520.7771606445312,237.39060974121094 L520.6493530273438,238.17892456054688 L520.5045776367188,239.35421752929688 L520.3394775390625,240.8499755859375 L520.1502685546875,242.54248046875 L519.9441528320312,244.25173950195312 L519.7567749023438,245.8037567138672 L519.628662109375,247.03363037109375 L519.5830688476562,247.80609130859375 L519.6410522460938,248.03726196289062 L519.818359375,247.70748901367188 L520.12548828125,246.83151245117188 L520.5643310546875,245.50262451171875 L521.1400146484375,243.87252807617188 L521.835693359375,242.1129913330078 L522.638916015625,240.3890380859375 L523.5125732421875,238.8529815673828 L524.416748046875,237.6325225830078 L525.2965087890625,236.83578491210938 L526.107177734375,236.5519256591797 L526.8115844726562,236.803466796875 L527.3885498046875,237.56275939941406 L527.79248046875,238.7458038330078 L527.9942016601562,240.241455078125 L527.9881591796875,241.8926544189453 L527.8067626953125,243.5143280029297 L527.534423828125,244.92019653320312 L527.2720336914062,245.97021484375 L527.0853881835938,246.5552215576172 L527.0123901367188,246.64100646972656 L527.0711669921875,246.2191925048828 L527.2827758789062,245.30165100097656 L527.6888427734375,243.96900939941406 L528.31201171875,242.36114501953125 L529.1467895507812,240.64402770996094 L530.1505126953125,239.010986328125 L531.2427368164062,237.6160430908203 L532.3455200195312,236.55784606933594 L533.4092407226562,235.91851806640625 L534.3770141601562,235.7392578125 L535.2012939453125,236.03428649902344 L535.8330688476562,236.7851104736328 L536.2212524414062,237.9296875 L536.352783203125,239.35809326171875 L536.2845458984375,240.94471740722656 L536.0928955078125,242.5420379638672 L535.8885498046875,243.99693298339844 L535.7644653320312,245.16458129882812 L535.7643432617188,245.96299743652344 L535.8380737304688,246.3917694091797 L535.9285278320312,246.5485382080078 M538.9917602539062,244.35035705566406 L539.1781005859375,244.3531951904297 L539.5878295898438,244.2858428955078 L540.252197265625,244.07839965820312 L541.1273193359375,243.66204833984375 L542.1270751953125,243.02694702148438 L543.1377563476562,242.1826934814453 L544.0543212890625,241.17849731445312 L544.7748413085938,240.0840606689453 L545.2149047851562,238.988525390625 L545.334228515625,237.98275756835938 L545.1083374023438,237.17269897460938 L544.55126953125,236.65574645996094 L543.7080078125,236.51852416992188 L542.6647338867188,236.8242645263672 L541.5399169921875,237.58135986328125 L540.4926147460938,238.7393035888672 L539.67333984375,240.1912078857422 L539.2107543945312,241.79933166503906 L539.158203125,243.40882873535156 L539.6231079101562,244.87368774414062 L540.6040649414062,246.0585479736328 L542.0218505859375,246.88856506347656 L543.384521484375,247.3549041748047 L544.3546752929688,247.5436553955078 M549.760498046875,241.06822204589844 L550.053466796875,240.9290771484375 L550.7633056640625,240.74008178710938 L551.956298828125,240.54879760742188 L553.5869750976562,240.41639709472656 L555.4517822265625,240.3272705078125 L557.34619140625,240.27682495117188 L558.8484497070312,240.2510223388672 L559.7711181640625,240.24107360839844 M563.1068115234375,229.71839904785156 L562.9251708984375,230.42227172851562 L562.6798095703125,231.6796417236328 L562.4332275390625,233.42501831054688 L562.2567138671875,235.397705078125 L562.1290283203125,237.47093200683594 L562.0239868164062,239.5304412841797 L561.910888671875,241.50340270996094 L561.7927856445312,243.282958984375 L561.6865844726562,244.7591552734375 L561.6044921875,245.8437957763672 L561.5458984375,246.4942169189453 L561.520751953125,246.69847106933594 L561.5384521484375,246.45814514160156 L561.6093139648438,245.77325439453125 L561.7769775390625,244.6811981201172 L562.0860595703125,243.29270935058594 L562.5792236328125,241.76109313964844 L563.29150390625,240.24185180664062 L564.2395629882812,238.86520385742188 L565.4156494140625,237.71302795410156 L566.79736328125,236.86639404296875 L568.3003540039062,236.4066619873047 L569.82177734375,236.3916015625 L571.200927734375,236.83377075195312 L572.281982421875,237.69638061523438 L572.9398193359375,238.88107299804688 L573.1155395507812,240.27786254882812 L572.7762451171875,241.75860595703125 L571.9638671875,243.1942596435547 L570.7412109375,244.47393798828125 L569.22607421875,245.51747131347656 L567.5784912109375,246.22996520996094 L566.0209350585938,246.5724639892578 L564.7318115234375,246.55923461914062 L563.8796997070312,246.36117553710938 L563.455078125,246.14405822753906 M580.18896484375,239.30242919921875 L579.9983520507812,238.87393188476562 L579.6142578125,238.28890991210938 L578.99560546875,237.74024963378906 L578.1521606445312,237.49807739257812 L577.0885009765625,237.64605712890625 L575.8734130859375,238.2164306640625 L574.638427734375,239.16098022460938 L573.57763671875,240.4215545654297 L572.8671875,241.88307189941406 L572.6412353515625,243.3902587890625 L572.947509765625,244.77346801757812 L573.7553100585938,245.87879943847656 L574.9825439453125,246.58543395996094 L576.5,246.83447265625 L578.1224975585938,246.59490966796875 L579.665771484375,245.89488220214844 L580.9674072265625,244.80821228027344 L581.90283203125,243.4525909423828 L582.4313354492188,241.98175048828125 L582.5531005859375,240.54722595214844 L582.3343505859375,239.27157592773438 L581.8963623046875,238.24595642089844 L581.4600830078125,237.56378173828125 L581.1568603515625,237.2090301513672 M586.1990966796875,237.11968994140625 L586.132080078125,237.28726196289062 L585.9886474609375,237.71368408203125 L585.764404296875,238.4820556640625 L585.49609375,239.59127807617188 L585.2418212890625,240.96734619140625 L585.0841674804688,242.476318359375 L585.0946044921875,243.93199157714844 L585.3287353515625,245.1704864501953 L585.7940063476562,246.02828979492188 L586.47607421875,246.39881896972656 L587.3409423828125,246.22747802734375 L588.3558349609375,245.5199432373047 L589.4652709960938,244.3341064453125 L590.6005249023438,242.8177490234375 L591.6692504882812,241.14942932128906 L592.5897827148438,239.54579162597656 L593.303466796875,238.1862335205078 L593.799072265625,237.20553588867188 L594.0841674804688,236.66439819335938 L594.1922607421875,236.5926513671875 L594.1683349609375,236.9965362548828 L594.05029296875,237.86573791503906 L593.8656005859375,239.13314819335938 L593.6751708984375,240.72776794433594 L593.5360717773438,242.46986389160156 L593.499267578125,244.15614318847656 L593.5406494140625,245.44332885742188 L593.6119995117188,246.1992645263672 M599.3929443359375,238.15237426757812 L599.4400634765625,238.43695068359375 L599.4826049804688,239.0615997314453 L599.4788208007812,240.07911682128906 L599.3799438476562,241.39796447753906 L599.178466796875,242.86520385742188 L598.8952026367188,244.27752685546875 L598.5790405273438,245.4536895751953 L598.2901000976562,246.2433319091797 L598.0848388671875,246.56039428710938 L598.0065307617188,246.36318969726562 L598.0840454101562,245.66751098632812 L598.346435546875,244.54098510742188 L598.8123168945312,243.1108856201172 L599.4932861328125,241.5166473388672 L600.3717041015625,239.92074584960938 L601.4144897460938,238.4706268310547 L602.5625,237.2981414794922 L603.7691040039062,236.51319885253906 L604.97509765625,236.18655395507812 L606.1201782226562,236.33685302734375 L607.119384765625,236.93789672851562 L607.8952026367188,237.9146728515625 L608.3740234375,239.16619873046875 L608.5675048828125,240.59375 L608.5391845703125,242.05987548828125 L608.4036865234375,243.43519592285156 L608.2692260742188,244.46990966796875 L608.1923828125,245.07354736328125 M618.7785034179688,241.32569885253906 L618.7078247070312,240.7664031982422 L618.4503784179688,239.95339965820312 L617.9033813476562,239.09927368164062 L617.0162963867188,238.53213500976562 L615.8361206054688,238.37179565429688 L614.4666748046875,238.6833038330078 L613.0652465820312,239.4293212890625 L611.809814453125,240.5663604736328 L610.8641967773438,241.9827880859375 L610.339599609375,243.5119171142578 L610.2999877929688,244.9581298828125 L610.7464599609375,246.14305114746094 L611.6497802734375,246.8961639404297 L612.9353637695312,247.10028076171875 L614.4906005859375,246.69203186035156 L616.149169921875,245.6686553955078 L617.7531127929688,244.10302734375 L619.1707153320312,242.13583374023438 L620.3463745117188,239.93092346191406 L621.264892578125,237.6566162109375 L621.9573974609375,235.49021911621094 L622.4378051757812,233.5838165283203 L622.7359619140625,232.06820678710938 L622.877197265625,231.03187561035156 L622.8997802734375,230.53643798828125 L622.8179931640625,230.6053009033203 L622.646728515625,231.26446533203125 L622.3720703125,232.49679565429688 L622.0153198242188,234.22413635253906 L621.6155395507812,236.2978973388672 L621.2299194335938,238.56661987304688 L620.9286499023438,240.90109252929688 L620.77001953125,243.1524658203125 L620.7703857421875,245.1701202392578 L620.8633422851562,246.6456756591797 L620.9719848632812,247.479248046875 " fill="none" stroke="black" stroke-linecap="round" stroke-width="2" /></svg>