<?xml version="1.0" encoding="utf-8" ?>
<svg baseProfile="full" height="100%" version="1.1" viewBox="0,0,1000,300" width="100%" xmlns="http://www.w3.org/2000/svg" xmlns:ev="http://www.w3.org/2001/xml-events" xmlns:xlink="http://www.w3.org/1999/xlink"><defs /><rect fill="white" height="300" width="1000" x="0" y="0" /><path d="M0,0 M368.980224609375,46.744407653808594 L368.9599914550781,46.78620910644531 L368.9179382324219,47.090675354003906 L368.8337097167969,47.853389739990234 L368.6894836425781,49.21449279785156 L368.47369384765625,51.16436767578125 L368.1929931640625,53.619258880615234 L367.88592529296875,56.43673324584961 L367.60455322265625,59.45265579223633 L367.4022521972656,62.449039459228516 L367.3258361816406,65.19058990478516 L367.3744812011719,67.45240783691406 L367.5240478515625,69.00322723388672 L367.7266540527344,69.7322998046875 L367.9217834472656,69.68944549560547 L368.06207275390625,69.25586700439453 L368.1419372558594,68.79267883300781 M367.9647521972656,46.348670959472656 L367.9696044921875,46.32140350341797 L368.03509521484375,46.46678924560547 L368.222412109375,46.932098388671875 L368.57354736328125,47.793766021728516 L369.0855712890625,48.960750579833984 L369.743408203125,50.288028717041016 L370.51336669921875,51.59892272949219 L371.3581237792969,52.75306701660156 L372.27593994140625,53.626922607421875 L373.272216796875,54.110687255859375 L374.35430908203125,54.1222038269043 L375.52239990234375,53.64220428466797 L376.74713134765625,52.70022964477539 L377.96295166015625,51.400550842285156 L379.10687255859375,49.89324951171875 L380.10565185546875,48.362648010253906 L380.9029846191406,46.97836685180664 L381.48895263671875,45.890655517578125 L381.8747863769531,45.203704833984375 L382.06365966796875,45.0 L382.0841064453125,45.35296630859375 L381.94091796875,46.332603454589844 L381.65228271484375,47.94402313232422 L381.27850341796875,50.13489532470703 L380.88482666015625,52.778255462646484 L380.5090637207031,55.69057083129883 L380.2156982421875,58.68358612060547 L380.0314636230469,61.579734802246094 L379.96575927734375,64.1911392211914 L380.0155334472656,66.36443328857422 L380.1319274902344,68.00337219238281 L380.2607421875,69.03315734863281 L380.3882141113281,69.479248046875 L380.5170593261719,69.4458236694336 L380.6268310546875,69.18942260742188 L380.71136474609375,68.92437744140625 M391.7685546875,60.33057403564453 L391.81402587890625,59.92684555053711 L391.7941589355469,59.28424835205078 L391.6077880859375,58.51311492919922 L391.1562194824219,57.839988708496094 L390.4053649902344,57.392913818359375 L389.39215087890625,57.28439712524414 L388.20025634765625,57.56971740722656 L386.927734375,58.264488220214844 L385.7020263671875,59.32960891723633 L384.6507568359375,60.69170379638672 L383.8880920410156,62.2418327331543 L383.48870849609375,63.8426513671875 L383.4800109863281,65.3465347290039 L383.8292236328125,66.59367370605469 L384.4757080078125,67.4535903930664 L385.3564758300781,67.8362808227539 L386.4080810546875,67.70001983642578 L387.552978515625,67.04739379882812 L388.7000427246094,65.95087432861328 L389.7555847167969,64.54328918457031 L390.6346130371094,63.005027770996094 L391.3056335449219,61.52713394165039 L391.7737121582031,60.27398681640625 L392.08099365234375,59.352901458740234 L392.2581481933594,58.8339958190918 L392.3485107421875,58.75824737548828 L392.37506103515625,59.15047073364258 L392.3681945800781,60.02011489868164 L392.3615417480469,61.319061279296875 L392.3854675292969,62.928916931152344 L392.45037841796875,64.69282531738281 L392.5828857421875,66.41178894042969 L392.7781982421875,67.89063262939453 L393.02716064453125,68.99736022949219 L393.257080078125,69.66397857666016 L393.4150390625,69.9557876586914 M398.2568054199219,48.80248260498047 L398.2744445800781,48.75614929199219 L398.28900146484375,48.904090881347656 L398.2888488769531,49.4499626159668 L398.2634582519531,50.543190002441406 L398.2187194824219,52.14463424682617 L398.16107177734375,54.136924743652344 L398.08740234375,56.35782241821289 L397.9990539550781,58.65389633178711 L397.89727783203125,60.888729095458984 L397.7840881347656,62.90583038330078 L397.67071533203125,64.58010864257812 L397.5837707519531,65.79220581054688 L397.54193115234375,66.49085998535156 L397.5641784667969,66.71255493164062 L397.62164306640625,66.65576171875 L397.678955078125,66.50189208984375 M402.6800537109375,57.503501892089844 L402.6065673828125,57.3922119140625 L402.33514404296875,57.359188079833984 L401.75311279296875,57.5490837097168 L400.8175354003906,58.09184265136719 L399.6112976074219,58.96229553222656 L398.31854248046875,60.057769775390625 L397.16064453125,61.226314544677734 L396.33941650390625,62.35139083862305 L396.0151062011719,63.35057067871094 L396.2627868652344,64.18093872070312 L397.09124755859375,64.82618713378906 L398.4407653808594,65.27174377441406 L400.16278076171875,65.50413513183594 L402.07354736328125,65.53345489501953 L404.00054931640625,65.35733032226562 L405.7540283203125,64.99793243408203 L407.19537353515625,64.50960540771484 L408.1704406738281,64.0556869506836 L408.6778259277344,63.7410888671875 M408.41259765625,58.68012619018555 L408.4958801269531,58.83474349975586 L408.6120910644531,59.218563079833984 L408.73687744140625,59.91056442260742 L408.821044921875,60.905521392822266 L408.862548828125,62.14896774291992 L408.8835754394531,63.53021240234375 L408.9183349609375,64.93126678466797 L408.9904479980469,66.17144012451172 L409.1168212890625,67.08698272705078 L409.271728515625,67.55914306640625 L409.40582275390625,67.67806243896484 L409.49261474609375,67.6042251586914 M409.18658447265625,51.18536376953125 L409.0987854003906,50.97850799560547 L408.9833068847656,50.74127960205078 L408.8775329589844,50.559669494628906 L408.8670959472656,50.54842758178711 L408.98602294921875,50.68092346191406 L409.2453308105469,50.92738723754883 L409.5323486328125,51.17143630981445 L409.75640869140625,51.352928161621094 M413.80267333984375,58.25645446777344 L413.9143981933594,58.6799430847168 L414.0779113769531,59.465797424316406 L414.2458801269531,60.598785400390625 L414.35528564453125,61.950157165527344 L414.40216064453125,63.440303802490234 L414.40411376953125,64.9511947631836 L414.3909606933594,66.3520736694336 L414.4006042480469,67.49665832519531 L414.45819091796875,68.2432861328125 L414.58056640625,68.49652099609375 L414.7799377441406,68.21080017089844 L415.08148193359375,67.39110565185547 L415.5002136230469,66.09983825683594 L416.0641174316406,64.47575378417969 L416.7947692871094,62.71037673950195 L417.6803894042969,61.01353454589844 L418.67047119140625,59.57846450805664 L419.7152099609375,58.55713653564453 L420.72705078125,58.036048889160156 L421.63812255859375,58.053932189941406 L422.3857421875,58.61252975463867 L422.9273376464844,59.65345001220703 L423.2464599609375,61.066062927246094 L423.40374755859375,62.7171630859375 L423.4749450683594,64.40830993652344 L423.5533142089844,65.94690704345703 L423.644287109375,67.06871795654297 L423.7296447753906,67.69879150390625 M433.072998046875,61.08158874511719 L433.0236511230469,60.632869720458984 L432.8069152832031,59.99398422241211 L432.33673095703125,59.36328887939453 L431.57366943359375,59.0220947265625 L430.5810546875,59.09571838378906 L429.4794921875,59.62676239013672 L428.42401123046875,60.54431915283203 L427.568359375,61.7427864074707 L427.072509765625,63.05616760253906 L427.04132080078125,64.27081298828125 L427.5155944824219,65.2100601196289 L428.4573059082031,65.7491683959961 L429.75482177734375,65.82178497314453 L431.2613525390625,65.44589233398438 L432.8153076171875,64.68913269042969 L434.25335693359375,63.66627502441406 L435.4307556152344,62.53702163696289 L436.2621765136719,61.47377014160156 L436.7303466796875,60.61880874633789 L436.89599609375,60.09761428833008 L436.8457946777344,59.9855842590332 L436.6741027832031,60.334075927734375 L436.47747802734375,61.1699333190918 L436.3557434082031,62.46828842163086 L436.38421630859375,64.14381408691406 L436.600341796875,66.08329772949219 L436.9747314453125,68.15072631835938 L437.4197082519531,70.21078491210938 L437.83514404296875,72.137451171875 L438.11712646484375,73.81802368164062 L438.16290283203125,75.15621948242188 L437.8918151855469,76.08297729492188 L437.26983642578125,76.57315826416016 L436.3206787109375,76.64350891113281 L435.13726806640625,76.34838104248047 L433.8576354980469,75.7492446899414 L432.64678955078125,74.94685363769531 L431.648193359375,74.06002807617188 L430.9884338378906,73.32566833496094 L430.66058349609375,72.86554718017578 M449.70941162109375,60.838619232177734 L449.7851867675781,61.389827728271484 L449.9296875,62.311805725097656 L450.13653564453125,63.507713317871094 L450.3575439453125,64.7431869506836 L450.5577392578125,65.91568756103516 L450.7032470703125,66.93756866455078 L450.7822265625,67.73233795166016 L450.8104248046875,68.1981430053711 L450.81353759765625,68.2305679321289 L450.8176574707031,67.76747131347656 L450.8657531738281,66.80204010009766 L451.01116943359375,65.43246459960938 L451.31011962890625,63.80451583862305 L451.813232421875,62.090721130371094 L452.52532958984375,60.44647216796875 L453.4123229980469,59.01597595214844 L454.401611328125,57.9085693359375 L455.4251708984375,57.237003326416016 L456.418701171875,57.07077407836914 L457.3253479003906,57.436622619628906 L458.08306884765625,58.29874801635742 L458.6484375,59.56233215332031 L458.99542236328125,61.078575134277344 L459.1471252441406,62.65620422363281 L459.1588134765625,64.08940887451172 L459.10064697265625,65.18848419189453 L459.0549011230469,65.80416870117188 L459.107421875,65.8474349975586 L459.3291931152344,65.3130111694336 L459.7644348144531,64.26724243164062 L460.41253662109375,62.8626823425293 L461.22998046875,61.29551315307617 L462.1651916503906,59.7811164855957 L463.14019775390625,58.49091339111328 L464.0812683105469,57.55727005004883 L464.91815185546875,57.05986022949219 L465.596923828125,57.05400848388672 L466.0755920410156,57.54767608642578 L466.36822509765625,58.51466369628906 L466.4891662597656,59.85184860229492 L466.48248291015625,61.39646911621094 L466.4276123046875,62.96096420288086 L466.40185546875,64.37992858886719 L466.48114013671875,65.46368408203125 L466.724853515625,66.10169219970703 L467.12548828125,66.2671890258789 L467.5262451171875,66.14067077636719 L467.822998046875,65.92816925048828 M470.0689392089844,57.3887939453125 L470.1728210449219,57.56410217285156 L470.416748046875,58.01951599121094 L470.8296203613281,58.8204460144043 L471.4041748046875,59.92971420288086 L472.11419677734375,61.22266387939453 L472.9190368652344,62.555198669433594 L473.78948974609375,63.79464340209961 L474.73687744140625,64.79444885253906 L475.73541259765625,65.42485046386719 L476.74334716796875,65.62889862060547 L477.55401611328125,65.54856872558594 L478.0608825683594,65.36822509765625 M480.1390380859375,58.94792556762695 L479.9241943359375,59.17657470703125 L479.5166931152344,59.698936462402344 L478.89495849609375,60.588645935058594 L478.09918212890625,61.846412658691406 L477.14508056640625,63.456974029541016 L476.05859375,65.36830139160156 L474.8934326171875,67.51760864257812 L473.7459411621094,69.82532501220703 L472.6846618652344,72.15579223632812 L471.7822265625,74.37423706054688 L471.07952880859375,76.33866119384766 L470.6644592285156,77.88633728027344 L470.6006774902344,78.89190673828125 L470.9317626953125,79.33206176757812 L471.41455078125,79.37352752685547 L471.838134765625,79.24456024169922 M489.97967529296875,55.624061584472656 L489.833251953125,55.982120513916016 L489.5653076171875,56.71077346801758 L489.19171142578125,57.85095977783203 L488.7758483886719,59.32725524902344 L488.3866882324219,61.06344223022461 L488.10888671875,62.923858642578125 L488.03057861328125,64.753173828125 L488.2286376953125,66.3780288696289 L488.7451171875,67.62848663330078 L489.5552978515625,68.3624267578125 L490.5916748046875,68.49776458740234 L491.7557373046875,68.01365661621094 L492.9302978515625,66.97681427001953 L494.00341796875,65.52635192871094 L494.8852844238281,63.86054992675781 L495.51361083984375,62.185546875 L495.8751220703125,60.694339752197266 L496.02178955078125,59.51411437988281 L496.0240478515625,58.72515869140625 L495.9534912109375,58.37870407104492 L495.86309814453125,58.50992202758789 L495.78729248046875,59.136348724365234 L495.750732421875,60.23515701293945 L495.80810546875,61.6781120300293 L496.019775390625,63.274173736572266 L496.45013427734375,64.81753540039062 L497.13140869140625,66.11703491210938 L498.05438232421875,67.04302215576172 L499.15313720703125,67.51679992675781 L500.32342529296875,67.48613739013672 L501.4559326171875,66.94231414794922 L502.4609375,65.91346740722656 L503.24609375,64.46422576904297 L503.76959228515625,62.721580505371094 L504.00286865234375,60.83734893798828 L503.9415283203125,58.98836135864258 L503.65057373046875,57.364444732666016 L503.2319030761719,56.09569549560547 L502.84478759765625,55.28450393676758 L502.5962219238281,54.89329147338867 M513.0989379882812,58.17304229736328 L512.9775390625,57.83802032470703 L512.6756591796875,57.372562408447266 L512.1192626953125,56.962711334228516 L511.28546142578125,56.8748779296875 L510.19976806640625,57.237274169921875 L508.95751953125,58.08896255493164 L507.70843505859375,59.36096954345703 L506.60662841796875,60.906890869140625 L505.803955078125,62.56611251831055 L505.4072265625,64.16130065917969 L505.4728698730469,65.53636932373047 L505.9916687011719,66.55120849609375 L506.913818359375,67.10723114013672 L508.1251220703125,67.1153564453125 L509.5112609863281,66.55496215820312 L510.93035888671875,65.46063232421875 L512.2578735351562,63.93815612792969 L513.3825073242188,62.15161895751953 L514.2230834960938,60.340816497802734 L514.7498168945312,58.71177291870117 L514.9984130859375,57.43752670288086 L515.026123046875,56.62350845336914 L514.910888671875,56.31319046020508 L514.7196655273438,56.51543045043945 L514.4777221679688,57.250797271728516 L514.2403564453125,58.459102630615234 L514.0516967773438,60.018741607666016 L513.9843139648438,61.755008697509766 L514.1144409179688,63.462486267089844 L514.5076904296875,64.9405517578125 L515.1903076171875,66.04568481445312 L516.1707153320312,66.66040802001953 L517.3800659179688,66.7183609008789 L518.7341918945312,66.21172332763672 L520.1251220703125,65.19032287597656 L521.4285278320312,63.75249099731445 L522.5404663085938,62.05953598022461 L523.3897705078125,60.32015609741211 L523.937744140625,58.74110794067383 L524.191650390625,57.50220489501953 L524.1939697265625,56.73918151855469 L523.9849853515625,56.52699279785156 L523.6168823242188,56.891849517822266 L523.1715698242188,57.828269958496094 L522.758544921875,59.23661422729492 L522.4879150390625,60.942928314208984 L522.462646484375,62.715782165527344 L522.73779296875,64.30156707763672 L523.3339233398438,65.48223876953125 L524.2479858398438,66.10939025878906 L525.4482421875,66.10809326171875 L526.8560180664062,65.47209930419922 L528.3629760742188,64.26372528076172 L529.8361206054688,62.62186050415039 L531.1737670898438,60.755531311035156 L532.2916870117188,58.902828216552734 L533.1497192382812,57.292362213134766 L533.7386474609375,56.09326171875 L534.0579223632812,55.42313003540039 L534.1259155273438,55.35813903808594 L533.9876708984375,55.94559097290039 L533.6759643554688,57.20016098022461 L533.2433471679688,59.05670166015625 L532.7373046875,61.39951705932617 L532.1820068359375,64.08978271484375 L531.610107421875,66.9793472290039 L531.0447387695312,69.9300537109375 L530.4940185546875,72.80753326416016 L529.9552001953125,75.44407653808594 L529.4083862304688,77.69243621826172 L528.8195190429688,79.43635559082031 L528.1787719726562,80.613037109375 L527.4671630859375,81.21068572998047 L526.6616821289062,81.25239562988281 L525.734619140625,80.79872131347656 L524.680908203125,79.89755249023438 L523.5559692382812,78.66483306884766 L522.482421875,77.27210998535156 L521.6732177734375,76.1008529663086 L521.2088012695312,75.35237121582031 M553.42333984375,58.76008605957031 L553.3116455078125,58.581356048583984 L553.044189453125,58.359561920166016 L552.5574340820312,58.20428466796875 L551.8370361328125,58.28079605102539 L550.871337890625,58.674774169921875 L549.7119140625,59.450096130371094 L548.4354858398438,60.60456085205078 L547.1813354492188,62.08134460449219 L546.121826171875,63.747013092041016 L545.4365234375,65.42776489257812 L545.2185668945312,66.91912841796875 L545.4981079101562,68.06414794921875 L546.2205810546875,68.746337890625 L547.2952880859375,68.88258361816406 L548.6251220703125,68.43013763427734 L550.1052856445312,67.3848876953125 L551.6180419921875,65.76886749267578 L553.0493774414062,63.663116455078125 L554.320556640625,61.19403839111328 L555.3759765625,58.51402282714844 L556.1982421875,55.79491424560547 L556.7939453125,53.22616958618164 L557.1931762695312,50.991756439208984 L557.428955078125,49.2195930480957 L557.5513916015625,48.002994537353516 L557.587890625,47.38274383544922 L557.5499877929688,47.35628128051758 L557.4406127929688,47.934906005859375 L557.263427734375,49.12480163574219 L557.031982421875,50.85491943359375 L556.7630615234375,53.010074615478516 L556.498291015625,55.441017150878906 L556.2819213867188,57.97389602661133 L556.1699829101562,60.47081756591797 L556.1947631835938,62.814483642578125 L556.426513671875,64.85375213623047 L556.8759765625,66.43238830566406 L557.546142578125,67.47816467285156 L558.20263671875,68.01795196533203 L558.6837158203125,68.20021057128906 M566.78271484375,59.19129943847656 L566.4932250976562,58.73141860961914 L565.9390869140625,58.136436462402344 L565.1215209960938,57.63824462890625 L564.130126953125,57.55044174194336 L563.0473022460938,57.95340347290039 L561.9716796875,58.83195877075195 L561.012939453125,60.06279754638672 L560.3075561523438,61.525047302246094 L559.9662475585938,63.05384826660156 L560.0474853515625,64.49230194091797 L560.5510864257812,65.68902587890625 L561.4142456054688,66.51722717285156 L562.5336303710938,66.87052154541016 L563.7969360351562,66.69699096679688 L565.064453125,65.99666595458984 L566.1891479492188,64.85462188720703 L567.044189453125,63.419471740722656 L567.5459594726562,61.874454498291016 L567.6796264648438,60.38564682006836 L567.4895629882812,59.07941818237305 L567.084716796875,58.04585266113281 L566.587158203125,57.3257942199707 L566.1683349609375,56.915714263916016 L565.9091796875,56.74587631225586 M571.7598876953125,56.606712341308594 L571.5946655273438,56.69654083251953 L571.3345336914062,56.99365234375 L571.0260620117188,57.60612487792969 L570.7528686523438,58.56868362426758 L570.5383911132812,59.826560974121094 L570.4320068359375,61.28369140625 L570.4464111328125,62.80559158325195 L570.6133422851562,64.22872924804688 L570.968994140625,65.40486907958984 L571.5184936523438,66.17821502685547 L572.2454833984375,66.4345932006836 L573.1303100585938,66.12700653076172 L574.0943603515625,65.2744369506836 L575.0525512695312,63.97818374633789 L575.919189453125,62.42536926269531 L576.5905151367188,60.823726654052734 L577.0429077148438,59.37923049926758 L577.292724609375,58.24577331542969 L577.37353515625,57.513397216796875 L577.34716796875,57.240936279296875 L577.2589111328125,57.46124267578125 L577.1190795898438,58.167320251464844 L577.0028686523438,59.321266174316406 L576.9715576171875,60.79075622558594 L577.09375,62.38704299926758 L577.4302978515625,63.90727233886719 L578.0050048828125,65.16413116455078 L578.7906494140625,66.01087951660156 L579.7659301757812,66.37801361083984 L580.8715209960938,66.22393798828125 L582.0197143554688,65.56807708740234 L583.1070556640625,64.48443603515625 L584.0205078125,63.088497161865234 L584.6641845703125,61.517311096191406 L585.0015869140625,59.9262809753418 L585.0546875,58.45398712158203 L584.89111328125,57.2312126159668 L584.6185302734375,56.33816909790039 L584.3374633789062,55.79620361328125 L584.1651000976562,55.592247009277344 L584.1715087890625,55.66876983642578 L584.3662719726562,55.94793701171875 L584.6254272460938,56.26774597167969 L584.8408203125,56.511505126953125 M589.89208984375,56.60139083862305 L589.912841796875,56.827327728271484 L589.9176025390625,57.36107635498047 L589.8715209960938,58.25687789916992 L589.7542724609375,59.46809768676758 L589.5845947265625,60.88417434692383 L589.4048461914062,62.38059997558594 L589.2716064453125,63.829551696777344 L589.2197265625,65.1150131225586 L589.2471313476562,66.11582946777344 L589.3482055664062,66.73046875 L589.5264282226562,66.88838195800781 L589.796630859375,66.55209350585938 L590.216064453125,65.73223876953125 L590.8206176757812,64.5016098022461 L591.6240844726562,62.98799133300781 L592.62060546875,61.33967208862305 L593.7701416015625,59.731414794921875 L594.987548828125,58.31511306762695 L596.1719360351562,57.220703125 L597.2116088867188,56.55387496948242 L598.0103759765625,56.37586212158203 L598.5224609375,56.692317962646484 L598.7490234375,57.486656188964844 L598.7374877929688,58.69236755371094 L598.5653686523438,60.19314193725586 L598.3442993164062,61.844017028808594 L598.1647338867188,63.468475341796875 L598.1451416015625,64.84526062011719 L598.3390502929688,65.80271911621094 L598.747802734375,66.24794006347656 L599.189697265625,66.31246185302734 L599.52734375,66.19803619384766 M606.6009521484375,46.61503601074219 L606.4356689453125,46.98955535888672 L606.174072265625,47.78585433959961 L605.8511352539062,49.049293518066406 L605.5518798828125,50.697975158691406 L605.30029296875,52.62565612792969 L605.1256103515625,54.74042892456055 L605.0203857421875,56.94013595581055 L604.990478515625,59.14552307128906 L605.0264282226562,61.2407341003418 L605.141845703125,63.11308670043945 L605.3177490234375,64.65726470947266 L605.5367431640625,65.75763702392578 L605.748046875,66.31957244873047 L605.9127197265625,66.360107421875 L606.006103515625,66.11409759521484 L606.045654296875,65.8188705444336 M600.9283447265625,57.136024475097656 L601.1217041015625,57.05171585083008 L601.61669921875,56.93678665161133 L602.5501708984375,56.82412338256836 L603.989501953125,56.77313232421875 L605.91943359375,56.79888153076172 L608.2593994140625,56.892066955566406 L610.8515014648438,57.03826141357422 L613.3980712890625,57.19879150390625 L615.614501953125,57.33022689819336 L617.268310546875,57.397918701171875 L618.23095703125,57.386390686035156 L618.4901123046875,57.30583190917969 L618.11376953125,57.2275505065918 L617.166259765625,57.24665832519531 L615.78173828125,57.47067642211914 L614.1500244140625,57.952911376953125 L612.5115356445312,58.71495056152344 L611.1083984375,59.709774017333984 L610.14306640625,60.87318801879883 L609.740234375,62.108707427978516 L609.957763671875,63.299537658691406 L610.7847900390625,64.29542541503906 L612.1507568359375,64.9747085571289 L613.9334716796875,65.23119354248047 L615.952392578125,65.02909851074219 L617.9747314453125,64.38548278808594 L619.7470703125,63.37137985229492 L621.04443359375,62.09934616088867 L621.7108154296875,60.699684143066406 L621.7132568359375,59.29924392700195 L621.1376953125,58.0242919921875 L620.130615234375,56.999168395996094 L618.9151611328125,56.31102752685547 L617.7210693359375,55.98764419555664 L616.819580078125,55.92169952392578 L616.3062744140625,55.97548294067383 M625.326904296875,55.90578842163086 L625.2601318359375,56.005184173583984 L625.102783203125,56.351043701171875 L624.8330078125,57.07197952270508 L624.484619140625,58.214439392089844 L624.132080078125,59.707096099853516 L623.893310546875,61.4330940246582 L623.8773193359375,63.21004104614258 L624.1533203125,64.8426513671875 L624.7288818359375,66.14945983886719 L625.5760498046875,66.9792709350586 L626.63623046875,67.23883819580078 L627.83740234375,66.91300201416016 L629.0916748046875,66.0428695678711 L630.30224609375,64.73373413085938 L631.353515625,63.15096664428711 L632.161865234375,61.49612045288086 L632.6885986328125,59.96952819824219 L632.95361328125,58.729209899902344 L633.0150146484375,57.88286209106445 L632.9444580078125,57.48118591308594 L632.7802734375,57.54966354370117 L632.5615234375,58.08905792236328 L632.338623046875,59.0732536315918 L632.192626953125,60.40898513793945 L632.217529296875,61.94648742675781 L632.486328125,63.478118896484375 L633.022705078125,64.82134246826172 L633.8109130859375,65.82646942138672 L634.8016357421875,66.40547180175781 L635.9466552734375,66.51332092285156 L637.1812744140625,66.14269256591797 L638.41650390625,65.31683349609375 L639.5472412109375,64.130859375 L640.4560546875,62.704612731933594 L641.0499267578125,61.17629623413086 L641.2972412109375,59.65505599975586 L641.2364501953125,58.2489013671875 L640.9678955078125,57.049678802490234 L640.6722412109375,56.21146011352539 L640.460693359375,55.75535202026367 M646.54150390625,55.774757385253906 L646.509765625,55.95546340942383 L646.41259765625,56.376075744628906 L646.2205810546875,57.1002197265625 L645.935302734375,58.10472106933594 L645.5899658203125,59.32012176513672 L645.241455078125,60.64436340332031 L644.94677734375,61.9705924987793 L644.7386474609375,63.183250427246094 L644.6275634765625,64.19068145751953 L644.6131591796875,64.90409088134766 L644.6806640625,65.25210571289062 L644.82861328125,65.17860412597656 L645.0792236328125,64.66848754882812 L645.456298828125,63.74279022216797 L645.9937744140625,62.49410629272461 L646.7127685546875,61.053680419921875 L647.604736328125,59.569522857666016 L648.6646728515625,58.18071365356445 L649.8623046875,57.010406494140625 L651.1336669921875,56.147483825683594 L652.3900146484375,55.660400390625 L653.53466796875,55.589054107666016 L654.4736328125,55.949859619140625 L655.16748046875,56.72873306274414 L655.59716796875,57.882381439208984 L655.7799072265625,59.32017135620117 L655.7645263671875,60.915897369384766 L655.6614990234375,62.556541442871094 L655.572998046875,64.11759948730469 L655.5819091796875,65.48818969726562 L655.6605224609375,66.4769287109375 L655.753173828125,67.03514099121094 " fill="none" stroke="black" stroke-linecap="round" stroke-width="2" /><path d="M0,0 M437.5488586425781,110.3452377319336 L437.60015869140625,111.02581024169922 L437.69281005859375,112.24749755859375 L437.8211669921875,113.98013305664062 L437.9892883300781,116.02010345458984 L438.2520751953125,118.2897720336914 L438.6271057128906,120.6905746459961 L439.14813232421875,123.1182861328125 L439.8154602050781,125.40502166748047 L440.5993957519531,127.37922668457031 L441.4695739746094,128.87966918945312 L442.4000244140625,129.78439331054688 L443.3406982421875,130.02749633789062 L444.267333984375,129.58460998535156 L445.151123046875,128.47264099121094 L445.98785400390625,126.77222442626953 L446.7669677734375,124.60698699951172 L447.4700012207031,122.12645721435547 L448.0827331542969,119.50904083251953 L448.574462890625,116.94317626953125 L448.9392395019531,114.62725067138672 L449.1820068359375,112.74370574951172 L449.310791015625,111.43296813964844 L449.343017578125,110.7847900390625 L449.32464599609375,110.8487548828125 L449.2778625488281,111.65478515625 L449.25482177734375,113.20042419433594 L449.2804260253906,115.4033203125 L449.37738037109375,118.09700012207031 L449.55780029296875,121.03230285644531 L449.8487854003906,123.90994262695312 L450.24969482421875,126.4404525756836 L450.7519226074219,128.42391967773438 L451.3116760253906,129.72531127929688 L451.8852233886719,130.27272033691406 L452.45770263671875,130.02732849121094 L453.0640869140625,128.96463012695312 L453.73931884765625,127.09944915771484 L454.51263427734375,124.59766387939453 L455.3616027832031,121.6620864868164 L456.2242736816406,118.52105712890625 L457.036865234375,115.38776397705078 L457.7452392578125,112.42678833007812 L458.3086242675781,109.76604461669922 L458.72113037109375,107.62339782714844 L458.9859924316406,106.14946746826172 L459.1300048828125,105.40737915039062 L459.19219970703125,105.21339416503906 L459.2085266113281,105.29954528808594 M465.6384582519531,121.39984893798828 L465.4009094238281,120.89622497558594 L464.9320068359375,120.16087341308594 L464.2030334472656,119.428466796875 L463.2640686035156,119.0536880493164 L462.17724609375,119.21192932128906 L461.0467224121094,119.97021484375 L460.0010681152344,121.2549057006836 L459.179931640625,122.91262817382812 L458.69097900390625,124.7429428100586 L458.5914611816406,126.50457763671875 L458.88818359375,127.9829330444336 L459.5292663574219,128.9971923828125 L460.4447021484375,129.4309539794922 L461.5418395996094,129.21592712402344 L462.7225646972656,128.35275268554688 L463.87841796875,126.91289520263672 L464.8972473144531,125.07003021240234 L465.68560791015625,123.07563781738281 L466.2051696777344,121.22541046142578 L466.47857666015625,119.72785949707031 L466.5701599121094,118.70136260986328 L466.5587463378906,118.1830062866211 L466.501953125,118.1898193359375 L466.4241027832031,118.74015045166016 L466.35064697265625,119.8688735961914 L466.32843017578125,121.49575805664062 L466.3916320800781,123.45936584472656 L466.59063720703125,125.53437805175781 L466.97650146484375,127.50019073486328 L467.5366516113281,129.14878845214844 L468.24456787109375,130.34800720214844 L469.06842041015625,130.98672485351562 L469.94451904296875,130.98570251464844 L470.8558044433594,130.31568908691406 L471.8039245605469,128.99722290039062 L472.7507019042969,127.076904296875 L473.6604919433594,124.69149780273438 L474.490966796875,122.00707244873047 L475.1815490722656,119.19103240966797 L475.71185302734375,116.42607879638672 L476.05987548828125,113.87688446044922 L476.22882080078125,111.67958068847656 L476.24676513671875,109.97840118408203 L476.1308898925781,108.88297271728516 L475.88134765625,108.47089385986328 L475.49407958984375,108.80287170410156 L474.9654541015625,109.918701171875 L474.3485412597656,111.78582000732422 L473.74310302734375,114.28823852539062 L473.2608947753906,117.23936462402344 L473.01025390625,120.38113403320312 L473.0444641113281,123.41635131835938 L473.3892822265625,126.07913970947266 L474.0244445800781,128.1316375732422 L474.9116516113281,129.40769958496094 L475.9914245605469,129.8496551513672 L477.212890625,129.4756622314453 L478.4997863769531,128.36074829101562 L479.7980651855469,126.6155014038086 L481.0442199707031,124.34434509277344 L482.19610595703125,121.67735290527344 L483.2254333496094,118.7730712890625 L484.13336181640625,115.8140869140625 L484.90924072265625,113.00216674804688 L485.5259704589844,110.50774383544922 L485.9613037109375,108.44991302490234 L486.1959228515625,106.93095397949219 L486.2291564941406,106.03938293457031 L486.09320068359375,105.85281372070312 L485.8258056640625,106.42830657958984 L485.4548645019531,107.76914978027344 L485.03668212890625,109.8089828491211 L484.6131896972656,112.41048431396484 L484.2239685058594,115.3855972290039 L483.90667724609375,118.5017318725586 L483.693359375,121.50102233886719 L483.5968017578125,124.1292953491211 L483.63330078125,126.22911071777344 L483.7337951660156,127.6079330444336 L483.83551025390625,128.31532287597656 M490.3271484375,118.41313171386719 L490.10736083984375,118.19986724853516 L489.5933837890625,118.04515075683594 L488.7113952636719,118.13037109375 L487.5050048828125,118.6247329711914 L486.12384033203125,119.50056457519531 L484.7705993652344,120.66191101074219 L483.64776611328125,121.95047760009766 L482.9453430175781,123.23780059814453 L482.7808837890625,124.37975311279297 L483.20367431640625,125.25912475585938 L484.21185302734375,125.80326843261719 L485.72430419921875,125.98458862304688 L487.5773620605469,125.8044204711914 L489.6026306152344,125.3287124633789 L491.61773681640625,124.62804412841797 L493.4552001953125,123.80072784423828 L494.9893798828125,122.95201873779297 L496.14453125,122.17813873291016 L496.87908935546875,121.56041717529297 L497.2266845703125,121.19648742675781 L497.2753601074219,121.15013885498047 L497.1380615234375,121.46517944335938 L496.93572998046875,122.13455200195312 L496.7831726074219,123.0903549194336 L496.7481994628906,124.21643829345703 L496.8628234863281,125.38451385498047 L497.12420654296875,126.48477172851562 L497.5088195800781,127.36754608154297 L497.97198486328125,127.91112518310547 L498.4711608886719,128.05316162109375 L498.8814697265625,127.93549346923828 L499.14227294921875,127.73123168945312 M496.252197265625,112.64593505859375 L496.25946044921875,112.53001403808594 L496.3073425292969,112.41969299316406 L496.37518310546875,112.34703063964844 L496.4424133300781,112.34408569335938 M502.4158630371094,120.32121276855469 L502.4421081542969,119.9714584350586 L502.4789733886719,119.5733871459961 L502.514892578125,119.33853912353516 L502.52520751953125,119.52110290527344 L502.5156555175781,120.1787109375 L502.4768981933594,121.24163818359375 L502.43505859375,122.55897521972656 L502.4259033203125,123.99014282226562 L502.48675537109375,125.35432434082031 L502.6182556152344,126.50981140136719 L502.82476806640625,127.35636901855469 L503.0728759765625,127.80915069580078 L503.36126708984375,127.8172836303711 L503.71038818359375,127.3658218383789 L504.162841796875,126.46426391601562 L504.7381896972656,125.20771026611328 L505.45880126953125,123.7364501953125 L506.29925537109375,122.2177505493164 L507.2085266113281,120.82496643066406 L508.1162414550781,119.69145202636719 L508.951416015625,118.906494140625 L509.6474304199219,118.54383087158203 L510.18408203125,118.63628387451172 L510.5639953613281,119.17994689941406 L510.79437255859375,120.13426971435547 L510.90264892578125,121.38357543945312 L510.9284973144531,122.77645111083984 L510.9677734375,124.16268920898438 L511.1259765625,125.3991470336914 L511.4740295410156,126.38700103759766 L511.87347412109375,127.0389175415039 L512.1972045898438,127.36986541748047 M520.5223388671875,121.32980346679688 L520.4524536132812,120.81211853027344 L520.21533203125,120.10891723632812 L519.730712890625,119.44388580322266 L518.978271484375,119.12564849853516 L518.0195922851562,119.23889923095703 L516.994140625,119.79292297363281 L516.0780029296875,120.7034912109375 L515.412353515625,121.87882232666016 L515.1041870117188,123.17809295654297 L515.2061157226562,124.4312973022461 L515.7144775390625,125.47482299804688 L516.59912109375,126.17645263671875 L517.7971801757812,126.4576187133789 L519.1715698242188,126.29032135009766 L520.5654296875,125.70365905761719 L521.8096923828125,124.76571655273438 L522.7639770507812,123.57592010498047 L523.3576049804688,122.27383422851562 L523.5982055664062,121.02619171142578 L523.5473022460938,119.9754638671875 L523.3102416992188,119.23172760009766 L522.9968872070312,118.86491394042969 L522.6954956054688,118.9111557006836 L522.45654296875,119.3925552368164 L522.3125610351562,120.32005310058594 L522.2791748046875,121.65563201904297 L522.3488159179688,123.32892608642578 L522.515869140625,125.25611877441406 L522.7527465820312,127.34527587890625 L523.0101928710938,129.50465393066406 L523.2225952148438,131.63653564453125 L523.3094482421875,133.62315368652344 L523.1912841796875,135.3482208251953 L522.8328247070312,136.7320556640625 L522.22998046875,137.7340545654297 L521.417236328125,138.35226440429688 L520.4439086914062,138.60223388671875 L519.364501953125,138.50711059570312 L518.2474365234375,138.09063720703125 L517.1961059570312,137.39659118652344 L516.3196411132812,136.4837188720703 L515.7369384765625,135.41897583007812 L515.5431518554688,134.26171875 L515.784423828125,133.072021484375 L516.463623046875,131.91114807128906 L517.5341796875,130.84974670410156 L518.888671875,129.95846557617188 L520.4029541015625,129.29232788085938 L521.9295043945312,128.86146545410156 L523.317138671875,128.6519317626953 L524.4581298828125,128.6092529296875 L525.2891845703125,128.66046142578125 L525.8067626953125,128.73194885253906 L526.069091796875,128.78292846679688 L526.1651000976562,128.79864501953125 M545.993896484375,121.49736022949219 L546.112060546875,120.86228942871094 L546.3006591796875,119.70442962646484 L546.526611328125,118.05130004882812 L546.722412109375,116.10050201416016 L546.8515625,113.95629119873047 L546.8765869140625,111.74681091308594 L546.7845458984375,109.61441040039062 L546.5731201171875,107.72120666503906 L546.255859375,106.22569274902344 L545.8499755859375,105.27702331542969 L545.3763427734375,105.0 L544.816650390625,105.47682189941406 L544.1795043945312,106.75352478027344 L543.499267578125,108.79191589355469 L542.8355102539062,111.47872161865234 L542.2664794921875,114.66285705566406 L541.8660278320312,118.17752075195312 L541.651123046875,121.85465240478516 L541.5963134765625,125.51785278320312 L541.663330078125,128.9808349609375 L541.7999877929688,132.01930236816406 L541.9580078125,134.4375762939453 L542.123291015625,136.11331176757812 L542.2764892578125,136.89498901367188 L542.3728637695312,136.75875854492188 L542.4082641601562,135.8354949951172 L542.4000854492188,134.69039916992188 L542.367919921875,133.77642822265625 M537.0086059570312,120.92621612548828 L537.01611328125,120.80537414550781 L537.2708740234375,120.6643295288086 L537.951904296875,120.54840850830078 L539.1668090820312,120.4976806640625 L540.856201171875,120.47772979736328 L542.88623046875,120.44674682617188 L545.108154296875,120.37622833251953 L547.4297485351562,120.26407623291016 L549.705078125,120.11865234375 L551.782470703125,119.94976806640625 L553.3219604492188,119.80355072021484 L554.2110595703125,119.70765686035156 M557.1922607421875,118.35008239746094 L556.8428955078125,118.26835632324219 L556.1827392578125,118.20862579345703 L555.2141723632812,118.27447509765625 L554.0546875,118.58843231201172 L552.813232421875,119.21751403808594 L551.624267578125,120.16773986816406 L550.609130859375,121.37094116210938 L549.8930053710938,122.70684051513672 L549.5565185546875,124.02183532714844 L549.6400756835938,125.1444320678711 L550.15380859375,125.92670440673828 L551.0732421875,126.2491455078125 L552.3247680664062,126.04460144042969 L553.791748046875,125.31230926513672 L555.318115234375,124.13483428955078 L556.7412109375,122.64175415039062 L557.9224853515625,121.01486206054688 L558.7869873046875,119.44097137451172 L559.3269653320312,118.0820541381836 L559.5791625976562,117.06996154785156 L559.6068115234375,116.51493835449219 L559.4790649414062,116.47154998779297 L559.2481689453125,116.97224426269531 L558.970703125,117.99230194091797 L558.7410888671875,119.42279052734375 L558.6477661132812,121.08399200439453 L558.760498046875,122.76707458496094 L559.1402587890625,124.2554931640625 L559.810791015625,125.37235260009766 L560.7549438476562,125.9943618774414 L561.9496459960938,126.06204223632812 L563.324462890625,125.56474304199219 L564.775390625,124.56221771240234 L566.2056884765625,123.17687225341797 L567.5321044921875,121.5651626586914 L568.6837158203125,119.89140319824219 L569.625732421875,118.32172393798828 L570.33740234375,116.9708023071289 L570.82177734375,115.91929626464844 L571.1036376953125,115.20982360839844 L571.2421875,114.86068725585938 L571.31201171875,114.86642456054688 L571.403076171875,115.21434783935547 L571.599609375,115.8727035522461 L571.9754638671875,116.78472137451172 L572.5713500976562,117.86346435546875 L573.383056640625,119.01254272460938 L574.36328125,120.15111541748047 L575.4166259765625,121.2098159790039 L576.4261474609375,122.1668701171875 L577.2823486328125,122.99999237060547 L577.881591796875,123.7049789428711 L578.1332397460938,124.28607177734375 L577.9861450195312,124.76678466796875 L577.408203125,125.16091918945312 L576.43408203125,125.49417114257812 L575.1685791015625,125.75629425048828 L573.757568359375,125.93065643310547 L572.3985595703125,125.99754333496094 L571.2820434570312,125.95857238769531 L570.5240478515625,125.84567260742188 L570.130126953125,125.7270278930664 L570.0018310546875,125.64529418945312 M583.1986083984375,105.17771911621094 L583.2256469726562,105.30238342285156 L583.260986328125,105.66996002197266 L583.2931518554688,106.40339660644531 L583.3089599609375,107.55560302734375 L583.3109130859375,109.1167221069336 L583.3055419921875,111.0283432006836 L583.2822265625,113.2049560546875 L583.2425537109375,115.5402603149414 L583.1883544921875,117.9161148071289 L583.14599609375,120.18898010253906 L583.1356201171875,122.22929382324219 L583.1654052734375,123.88442993164062 L583.2009887695312,125.0397720336914 L583.2188720703125,125.66107940673828 L583.2099609375,125.87374114990234 L583.1912841796875,125.86124420166016 " fill="none" stroke="black" stroke-linecap="round" stroke-width="2" /><path d="M0,0 M457.2321472167969,166.61927795410156 L457.1782531738281,166.5944061279297 L457.1148986816406,166.76097106933594 L457.05389404296875,167.3235321044922 L457.0179443359375,168.46585083007812 L456.9836120605469,170.2202911376953 L456.9436340332031,172.52789306640625 L456.88641357421875,175.25025939941406 L456.8460998535156,178.22689819335938 L456.84912109375,181.2728271484375 L456.9394226074219,184.1863250732422 L457.11181640625,186.7672576904297 L457.3408203125,188.7833251953125 L457.5652770996094,190.07412719726562 L457.74560546875,190.62001037597656 L457.85235595703125,190.6634979248047 L457.901123046875,190.49261474609375 M450.0969543457031,167.6063690185547 L450.2247009277344,167.43946838378906 L450.6884460449219,167.1764678955078 L451.6729736328125,166.8373260498047 L453.26171875,166.4798583984375 L455.378662109375,166.1138916015625 L457.86773681640625,165.75466918945312 L460.49072265625,165.42022705078125 L462.9745178222656,165.1631317138672 L465.0533447265625,165.0149383544922 L466.53863525390625,165.0 L467.3795166015625,165.0652313232422 L467.71966552734375,165.14865112304688 M453.34185791015625,179.17132568359375 L453.7235412597656,179.12542724609375 L454.5360107421875,178.9394073486328 L455.8007507324219,178.57699584960938 L457.4261169433594,178.07432556152344 L459.25750732421875,177.56256103515625 L461.1080017089844,177.14720153808594 L462.5712585449219,176.89366149902344 L463.4777526855469,176.7813720703125 M473.1158447265625,178.3580780029297 L472.9046936035156,178.07394409179688 L472.46331787109375,177.6866455078125 L471.72222900390625,177.36196899414062 L470.69708251953125,177.35350036621094 L469.42901611328125,177.80445861816406 L468.07257080078125,178.7825927734375 L466.79815673828125,180.2103271484375 L465.79864501953125,181.94358825683594 L465.19287109375,183.7720184326172 L465.0443115234375,185.46792602539062 L465.3455505371094,186.8304443359375 L466.0437927246094,187.70779418945312 L467.0317687988281,187.98072814941406 L468.1976318359375,187.60711669921875 L469.428466796875,186.61697387695312 L470.6363525390625,185.12086486816406 L471.74737548828125,183.3033905029297 L472.6842041015625,181.39549255371094 L473.39239501953125,179.63369750976562 L473.84527587890625,178.1970977783203 L474.069091796875,177.21182250976562 L474.1292419433594,176.7543487548828 L474.097412109375,176.85658264160156 L474.0251159667969,177.53546142578125 L473.9400939941406,178.77142333984375 L473.8623352050781,180.4279327392578 L473.8185119628906,182.3077850341797 L473.88360595703125,184.19400024414062 L474.11053466796875,185.87596130371094 L474.51409912109375,187.2244873046875 L474.9356689453125,188.12074279785156 L475.2525634765625,188.58218383789062 M483.306640625,176.82144165039062 L483.1142578125,176.5875701904297 L482.67779541015625,176.32241821289062 L481.94415283203125,176.19635009765625 L480.9636535644531,176.43714904785156 L479.8480224609375,177.13609313964844 L478.756103515625,178.2987823486328 L477.8521728515625,179.8175811767578 L477.29388427734375,181.5236053466797 L477.17919921875,183.2135009765625 L477.5536804199219,184.7117156982422 L478.38037109375,185.89613342285156 L479.6362609863281,186.65869140625 L481.2016906738281,186.96011352539062 L482.9165344238281,186.82513427734375 L484.3448791503906,186.4899139404297 L485.2558288574219,186.1674041748047 M486.60205078125,182.54563903808594 L486.8089599609375,182.32012939453125 L487.237548828125,181.84532165527344 L487.8987731933594,181.07867431640625 L488.70086669921875,180.06787109375 L489.52618408203125,178.89085388183594 L490.23199462890625,177.665283203125 L490.70465087890625,176.52435302734375 L490.86376953125,175.60057067871094 L490.681396484375,174.9998016357422 L490.1744079589844,174.8110809326172 L489.4056091308594,175.0952606201172 L488.48944091796875,175.87367248535156 L487.58966064453125,177.10887145996094 L486.8853759765625,178.68772888183594 L486.5351257324219,180.4342498779297 L486.65521240234375,182.15049743652344 L487.2680969238281,183.64698791503906 L488.3484802246094,184.78866577148438 L489.789794921875,185.5072021484375 L491.4982604980469,185.74607849121094 L493.3052673339844,185.5298309326172 L495.0514221191406,184.9476318359375 L496.3877868652344,184.3015899658203 L497.1882019042969,183.81455993652344 M501.3805847167969,174.4459228515625 L500.8282165527344,174.3367919921875 L499.8922424316406,174.32981872558594 L498.6675720214844,174.55953979492188 L497.43511962890625,175.13502502441406 L496.40203857421875,175.99862670898438 L495.76739501953125,177.03089904785156 L495.6897888183594,178.09864807128906 L496.2586669921875,179.11260986328125 L497.4399719238281,179.99708557128906 L499.1048583984375,180.73690795898438 L501.0367431640625,181.34884643554688 L502.9750061035156,181.883056640625 L504.6717834472656,182.38925170898438 L505.9054870605469,182.8978271484375 L506.5359802246094,183.4125518798828 L506.51129150390625,183.93612670898438 L505.86053466796875,184.4732666015625 L504.69366455078125,185.0121612548828 L503.1771240234375,185.51055908203125 L501.5232849121094,185.9210662841797 L499.97613525390625,186.20677185058594 L498.72589111328125,186.3584747314453 L497.8840026855469,186.40966796875 L497.5535888671875,186.371826171875 L497.7352294921875,186.25042724609375 L498.36810302734375,186.05076599121094 L499.1146240234375,185.8471221923828 L499.6998596191406,185.69151306152344 M518.736572265625,174.53134155273438 L518.7740478515625,174.81431579589844 L518.8326416015625,175.45628356933594 L518.890869140625,176.5488739013672 L518.926513671875,178.0930633544922 L518.9353637695312,180.0631561279297 L518.9095458984375,182.37481689453125 L518.8515625,184.92510986328125 L518.7702026367188,187.554443359375 L518.6744384765625,190.0347137451172 L518.5965576171875,192.14935302734375 L518.5587158203125,193.7279815673828 L518.5542602539062,194.57777404785156 L518.5607299804688,194.65655517578125 L518.558837890625,194.04388427734375 L518.5437622070312,193.19276428222656 L518.5283203125,192.48709106445312 M516.4706420898438,176.45298767089844 L516.5630493164062,175.82835388183594 L516.8637084960938,174.9145965576172 L517.4945068359375,173.9027557373047 L518.5281982421875,173.0870819091797 L519.9472045898438,172.53256225585938 L521.65234375,172.2727508544922 L523.468505859375,172.30735778808594 L525.18994140625,172.66995239257812 L526.6143798828125,173.36399841308594 L527.5781860351562,174.35800170898438 L527.9776000976562,175.5977020263672 L527.7786254882812,176.98681640625 L527.029541015625,178.42242431640625 L525.8265380859375,179.78854370117188 L524.3306884765625,180.98928833007812 L522.7609252929688,181.9413299560547 L521.3528442382812,182.59829711914062 L520.2847900390625,182.9502716064453 L519.6522827148438,183.07659912109375 L519.3817749023438,183.07757568359375 M536.1055297851562,176.01876831054688 L536.030517578125,175.62057495117188 L535.8109130859375,175.0069580078125 L535.3630981445312,174.31089782714844 L534.6513671875,173.77586364746094 L533.7131958007812,173.54576110839844 L532.626953125,173.72564697265625 L531.4964599609375,174.3500213623047 L530.4545288085938,175.3996124267578 L529.6253051757812,176.77610778808594 L529.11572265625,178.30386352539062 L529.0140380859375,179.78131103515625 L529.346435546875,181.00448608398438 L530.0771484375,181.8070831298828 L531.1358032226562,182.08753967285156 L532.4100341796875,181.81683349609375 L533.7492065429688,181.02023315429688 L535.0154418945312,179.8050537109375 L536.0953369140625,178.3277130126953 L536.9188232421875,176.8037872314453 L537.4801025390625,175.43853759765625 L537.7993774414062,174.38729858398438 L537.9178466796875,173.74644470214844 L537.9024658203125,173.56776428222656 L537.8043823242188,173.85179138183594 L537.6695556640625,174.61309814453125 L537.5465698242188,175.78273010253906 L537.4683837890625,177.23049926757812 L537.482666015625,178.80108642578125 L537.6273193359375,180.3083953857422 L537.8959350585938,181.5832977294922 L538.1776123046875,182.46571350097656 L538.3892822265625,182.9342041015625 M548.0838623046875,172.59689331054688 L547.7778930664062,172.29519653320312 L547.11767578125,171.9510498046875 L546.0663452148438,171.74432373046875 L544.736572265625,171.88438415527344 L543.3199462890625,172.38018798828125 L542.0606689453125,173.17176818847656 L541.2041625976562,174.13819885253906 L540.9235229492188,175.1793975830078 L541.3234252929688,176.20513916015625 L542.3862915039062,177.15904235839844 L543.9990844726562,178.01612854003906 L545.9397583007812,178.78321838378906 L547.937255859375,179.48069763183594 L549.7049560546875,180.123291015625 L551.017578125,180.7150421142578 L551.7060546875,181.25274658203125 L551.7066650390625,181.7231903076172 L551.0255737304688,182.1120147705078 L549.7412109375,182.40675354003906 L548.0111083984375,182.58810424804688 L546.035400390625,182.6431884765625 L544.031494140625,182.586669921875 L542.21484375,182.44496154785156 L540.8154907226562,182.23056030273438 L539.9705200195312,181.9527587890625 L539.723876953125,181.6107635498047 L539.8463134765625,181.29327392578125 L540.084228515625,181.06800842285156 M556.750244140625,172.3553466796875 L556.61279296875,172.0603790283203 L556.2091064453125,171.68031311035156 L555.45751953125,171.37542724609375 L554.3786010742188,171.34237670898438 L553.1229858398438,171.62619018554688 L551.9434814453125,172.2049102783203 L551.097900390625,172.99310302734375 L550.8028564453125,173.9097900390625 L551.208984375,174.876220703125 L552.3389282226562,175.82350158691406 L554.080322265625,176.70982360839844 L556.2275390625,177.5416259765625 L558.46240234375,178.3216552734375 L560.4794921875,179.05482482910156 L562.0181884765625,179.73187255859375 L562.9075317382812,180.34336853027344 L563.0551147460938,180.8798065185547 L562.4779052734375,181.34988403320312 L561.231201171875,181.74549865722656 L559.4984741210938,182.05885314941406 L557.505126953125,182.28118896484375 L555.5145263671875,182.42303466796875 L553.744384765625,182.4960174560547 L552.37060546875,182.5155029296875 L551.4505615234375,182.4982452392578 L550.9819946289062,182.45559692382812 L550.828369140625,182.4095001220703 L550.8391723632812,182.37857055664062 " fill="none" stroke="black" stroke-linecap="round" stroke-width="2" /><path d="M0,0 M402.77911376953125,242.6999969482422 L402.84423828125,242.09738159179688 L402.98712158203125,240.97474670410156 L403.2170715332031,239.3516845703125 L403.5216064453125,237.406494140625 L403.8883361816406,235.25448608398438 L404.30029296875,233.03289794921875 L404.71527099609375,230.8830108642578 L405.09844970703125,228.99075317382812 L405.40985107421875,227.54006958007812 L405.6382141113281,226.66551208496094 L405.8215637207031,226.47775268554688 L406.0006408691406,227.03857421875 L406.2077331542969,228.3733673095703 L406.44793701171875,230.43125915527344 L406.70550537109375,233.07566833496094 L406.961669921875,236.0843048095703 L407.2251281738281,239.22421264648438 L407.4710693359375,242.24745178222656 L407.7052001953125,244.945068359375 L407.8885803222656,247.06910705566406 L407.9869689941406,248.451904296875 L407.9801025390625,249.04684448242188 L407.9190368652344,249.1068115234375 L407.84124755859375,248.93348693847656 M400.8229675292969,240.2020721435547 L401.0044250488281,240.21218872070312 L401.4700622558594,240.2042236328125 L402.3186340332031,240.15879821777344 L403.61224365234375,240.04005432128906 L405.283447265625,239.84393310546875 L407.1693115234375,239.57701110839844 L408.7656555175781,239.3289031982422 L409.7950134277344,239.1544189453125 M414.2857360839844,238.63499450683594 L414.22601318359375,239.2420196533203 L414.14715576171875,240.3085174560547 L414.07879638671875,241.77938842773438 L414.0522766113281,243.43247985839844 L414.0595703125,245.13247680664062 L414.08331298828125,246.72723388671875 L414.10394287109375,248.0914306640625 L414.11090087890625,249.06472778320312 L414.1092224121094,249.51710510253906 L414.1153564453125,249.36631774902344 L414.1613464355469,248.58961486816406 L414.30340576171875,247.24464416503906 L414.59759521484375,245.5004119873047 L415.09295654296875,243.5555877685547 L415.806640625,241.6151580810547 L416.71209716796875,239.87110900878906 L417.7550048828125,238.4727020263672 L418.875732421875,237.52377319335938 L419.99725341796875,237.09495544433594 L421.0642395019531,237.21063232421875 L422.00946044921875,237.8451690673828 L422.7665100097656,238.94471740722656 L423.2838134765625,240.4116668701172 L423.5418701171875,242.11001586914062 L423.5595703125,243.87478637695312 L423.418212890625,245.5606689453125 L423.2304382324219,246.9949493408203 L423.11431884765625,248.06146240234375 L423.1411437988281,248.6975555419922 L423.2550354003906,248.97023010253906 L423.3790283203125,249.01478576660156 M433.0652770996094,241.50389099121094 L432.9609680175781,241.09222412109375 L432.69744873046875,240.4638214111328 L432.20281982421875,239.7559051513672 L431.4511413574219,239.20578002929688 L430.460693359375,238.93983459472656 L429.2939758300781,239.0496063232422 L428.0614013671875,239.5679473876953 L426.90936279296875,240.50137329101562 L425.9734191894531,241.7893524169922 L425.3778381347656,243.3031463623047 L425.19219970703125,244.88050842285156 L425.4173889160156,246.33924865722656 L426.029296875,247.51394653320312 L426.95318603515625,248.2593536376953 L428.0999450683594,248.47097778320312 L429.3957214355469,248.07383728027344 L430.7586975097656,247.0437469482422 L432.10687255859375,245.41055297851562 L433.3784484863281,243.27899169921875 L434.5025634765625,240.8053741455078 L435.4292297363281,238.18406677246094 L436.1409912109375,235.6074676513672 L436.634765625,233.2455291748047 L436.93218994140625,231.2389373779297 L437.0710144042969,229.70062255859375 L437.0898132324219,228.7141571044922 L437.01513671875,228.35000610351562 L436.8748474121094,228.66885375976562 L436.6753234863281,229.6776580810547 L436.44793701171875,231.3275909423828 L436.2436828613281,233.49069213867188 L436.1055603027344,235.97756958007812 L436.0619201660156,238.5933074951172 L436.125,241.16392517089844 L436.272705078125,243.52183532714844 L436.508056640625,245.53897094726562 L436.82861328125,247.11927795410156 L437.2012939453125,248.22128295898438 L437.5262451171875,248.85696411132812 L437.74102783203125,249.13629150390625 M453.33721923828125,226.5819091796875 L453.3408508300781,226.8793487548828 L453.3067321777344,227.50045776367188 L453.2103271484375,228.5018768310547 L453.048828125,229.86239624023438 L452.85150146484375,231.58200073242188 L452.62860107421875,233.6249237060547 L452.3814697265625,235.93109130859375 L452.1112060546875,238.4181671142578 L451.82244873046875,240.96917724609375 L451.5428466796875,243.46307373046875 L451.3125,245.7959747314453 L451.161376953125,247.83323669433594 L451.1122131347656,249.43429565429688 L451.1752624511719,250.52825927734375 L451.28533935546875,251.12332153320312 L451.3855285644531,251.34579467773438 M457.98638916015625,225.0 L457.95733642578125,225.12391662597656 L457.89373779296875,225.56744384765625 L457.7802734375,226.44125366210938 L457.63739013671875,227.7504425048828 L457.49658203125,229.295654296875 L457.4049987792969,230.85568237304688 L457.36614990234375,232.0598602294922 L457.3708801269531,232.77711486816406 M461.52532958984375,239.5849151611328 L461.5721435546875,239.5540313720703 L461.6473083496094,239.63772583007812 L461.73663330078125,239.97686767578125 L461.81219482421875,240.68736267089844 L461.86328125,241.7832489013672 L461.8727722167969,243.1835174560547 L461.8476257324219,244.71514892578125 L461.79693603515625,246.1796112060547 L461.739501953125,247.3958740234375 L461.697021484375,248.21250915527344 L461.7037048339844,248.53717041015625 L461.7825927734375,248.30384826660156 L461.98760986328125,247.48426818847656 L462.35791015625,246.13623046875 L462.92803955078125,244.42575073242188 L463.7102966308594,242.59591674804688 L464.6861572265625,240.90330505371094 L465.7779541015625,239.5450897216797 L466.92333984375,238.6578826904297 L468.0282897949219,238.3132781982422 L469.0107727050781,238.54693603515625 L469.8137512207031,239.35813903808594 L470.37542724609375,240.67552185058594 L470.65081787109375,242.34671020507812 L470.6626281738281,244.14755249023438 L470.4560852050781,245.81951904296875 L470.12762451171875,247.12940979003906 L469.8032531738281,247.90377807617188 L469.57623291015625,248.03671264648438 L469.5398254394531,247.50326538085938 L469.77838134765625,246.34039306640625 L470.3464660644531,244.69264221191406 L471.26470947265625,242.79324340820312 L472.49627685546875,240.90740966796875 L473.9225158691406,239.27072143554688 L475.39306640625,238.0622100830078 L476.7467346191406,237.37599182128906 L477.871826171875,237.25811767578125 L478.70452880859375,237.7131805419922 L479.23602294921875,238.7000732421875 L479.4898986816406,240.11436462402344 L479.5137939453125,241.80496215820312 L479.3624267578125,243.5937042236328 L479.1402587890625,245.29843139648438 L478.9417724609375,246.75584411621094 L478.845947265625,247.86447143554688 L478.8441467285156,248.55328369140625 L478.89068603515625,248.87762451171875 M491.8915710449219,228.59982299804688 L491.830078125,229.31228637695312 L491.70953369140625,230.6042938232422 L491.53643798828125,232.43980407714844 L491.3415832519531,234.59580993652344 L491.150146484375,236.9607696533203 L490.9848937988281,239.4154052734375 L490.84405517578125,241.8446502685547 L490.7152404785156,244.0668487548828 L490.60272216796875,245.9129180908203 L490.5191650390625,247.25477600097656 L490.47564697265625,248.0127410888672 L490.497802734375,248.1726531982422 L490.5941162109375,247.76124572753906 L490.7685546875,246.804931640625 L491.054931640625,245.40174865722656 L491.48162841796875,243.70765686035156 L492.06005859375,241.88723754882812 L492.8079528808594,240.123779296875 L493.708740234375,238.57763671875 L494.7177429199219,237.36386108398438 L495.7870178222656,236.58982849121094 L496.830322265625,236.33499145507812 L497.7413635253906,236.62030029296875 L498.4229431152344,237.4326171875 L498.81781005859375,238.69960021972656 L498.923828125,240.30783081054688 L498.79718017578125,242.10025024414062 L498.5519104003906,243.90721130371094 L498.3113098144531,245.53924560546875 L498.1680908203125,246.8534698486328 L498.1309509277344,247.71359252929688 L498.1598815917969,248.14663696289062 M507.97479248046875,238.36427307128906 L507.86578369140625,237.9376220703125 L507.5672302246094,237.390380859375 L507.0005798339844,236.9404296875 L506.1595458984375,236.89939880371094 L505.1151428222656,237.38157653808594 L503.9984130859375,238.41659545898438 L502.9794006347656,239.91854858398438 L502.22613525390625,241.74598693847656 L501.86285400390625,243.67507934570312 L501.9546813964844,245.47048950195312 L502.5080261230469,246.9248046875 L503.43878173828125,247.8780517578125 L504.62774658203125,248.22181701660156 L505.9395751953125,247.91856384277344 L507.2174072265625,246.9873809814453 L508.31817626953125,245.5266571044922 L509.1490173339844,243.71987915039062 L509.63116455078125,241.79177856445312 L509.7611389160156,239.9664306640625 L509.5903015136719,238.45947265625 L509.206787109375,237.3948974609375 L508.7312927246094,236.80067443847656 L508.3330993652344,236.57272338867188 L508.0854187011719,236.5511016845703 M513.7083129882812,236.18019104003906 L513.712646484375,236.37466430664062 L513.697509765625,236.87359619140625 L513.6478881835938,237.7886962890625 L513.5541381835938,239.13821411132812 L513.4144287109375,240.85618591308594 L513.2446899414062,242.7764434814453 L513.07568359375,244.6591033935547 L512.9378662109375,246.2758331298828 L512.8641967773438,247.43173217773438 L512.8804321289062,248.00559997558594 L512.9832153320312,247.9573974609375 L513.172607421875,247.28318786621094 L513.4744262695312,246.02024841308594 L513.925537109375,244.320068359375 L514.55322265625,242.3716278076172 L515.3779296875,240.4029541015625 L516.3707275390625,238.62294006347656 L517.4573974609375,237.1787567138672 L518.573486328125,236.1706085205078 L519.651123046875,235.68798828125 L520.6068115234375,235.75845336914062 L521.377197265625,236.38726806640625 L521.9038696289062,237.5263671875 L522.1416015625,239.0745086669922 L522.10595703125,240.88421630859375 L521.8626708984375,242.75466918945312 L521.4998168945312,244.4727325439453 L521.1273193359375,245.85206604003906 L520.835205078125,246.73939514160156 L520.6935424804688,247.0255889892578 L520.747802734375,246.66860961914062 L521.03759765625,245.66680908203125 L521.5794067382812,244.13429260253906 L522.3714599609375,242.26519775390625 L523.3628540039062,240.28758239746094 L524.4909057617188,238.41131591796875 L525.6591796875,236.81858825683594 L526.7877197265625,235.62124633789062 L527.8138427734375,234.91319274902344 L528.6869506835938,234.761962890625 L529.3577880859375,235.19908142089844 L529.8037719726562,236.2044219970703 L529.9892578125,237.69741821289062 L529.927734375,239.5230712890625 L529.6885986328125,241.4781036376953 L529.3720703125,243.36138916015625 L529.1018676757812,245.0043182373047 L529.0258178710938,246.22032165527344 L529.2078247070312,246.88919067382812 L529.6448974609375,246.98106384277344 L530.1334838867188,246.7382049560547 L530.5042114257812,246.42196655273438 M531.8803100585938,244.25436401367188 L532.1270141601562,244.35816955566406 L532.622314453125,244.4080047607422 L533.3892822265625,244.2778778076172 L534.3742065429688,243.83518981933594 L535.4957275390625,243.05459594726562 L536.65283203125,241.97323608398438 L537.7368774414062,240.66688537597656 L538.6264038085938,239.22633361816406 L539.2251586914062,237.77798461914062 L539.4888305664062,236.45489501953125 L539.3883056640625,235.3933563232422 L538.94775390625,234.7257843017578 L538.24072265625,234.5453338623047 L537.3529052734375,234.90469360351562 L536.3946533203125,235.80653381347656 L535.4908447265625,237.18553161621094 L534.741943359375,238.9132537841797 L534.24267578125,240.82923889160156 L534.0608520507812,242.75640869140625 L534.2896118164062,244.52418518066406 L534.949951171875,245.97817993164062 L535.9794921875,247.024169921875 L536.9917602539062,247.63218688964844 L537.7188720703125,247.890869140625 M544.9449462890625,240.0571746826172 L545.197509765625,240.05270385742188 L545.7603149414062,240.02284240722656 L546.66943359375,239.95069885253906 L547.8935546875,239.82371520996094 L549.3214111328125,239.66159057617188 L550.7921752929688,239.47283935546875 L551.9664916992188,239.31007385253906 L552.693115234375,239.2045440673828 M560.3086547851562,229.0132293701172 L560.2435302734375,229.03143310546875 L560.1253051757812,229.27598571777344 L559.9288330078125,229.9262237548828 L559.64697265625,231.10513305664062 L559.2608642578125,232.78646850585938 L558.7738647460938,234.86990356445312 L558.2149658203125,237.20370483398438 L557.650390625,239.624755859375 L557.1357421875,241.94467163085938 L556.725341796875,243.9658966064453 L556.4445190429688,245.54434204101562 L556.2822265625,246.5899658203125 L556.2139892578125,247.07118225097656 L556.2236328125,247.00689697265625 L556.2949829101562,246.41957092285156 L556.4537353515625,245.35447692871094 L556.7398681640625,243.93348693847656 L557.1954345703125,242.3005828857422 L557.8629150390625,240.61148071289062 L558.76220703125,239.02426147460938 L559.8556518554688,237.66189575195312 L561.09423828125,236.63461303710938 L562.383544921875,236.0401611328125 L563.6326293945312,235.9356689453125 L564.7546997070312,236.3250732421875 L565.6832275390625,237.17294311523438 L566.357666015625,238.39675903320312 L566.7200927734375,239.88279724121094 L566.7197265625,241.4996795654297 L566.3375854492188,243.10105895996094 L565.58154296875,244.53350830078125 L564.5125732421875,245.6813201904297 L563.2224731445312,246.4639129638672 L561.8075561523438,246.84910583496094 L560.3814697265625,246.8817596435547 L559.0935668945312,246.60009765625 L558.0848388671875,246.07286071777344 L557.4639892578125,245.40219116210938 L557.19482421875,244.80340576171875 L557.1528930664062,244.39991760253906 M574.21728515625,238.6663818359375 L574.1141357421875,238.3317108154297 L573.8643798828125,237.84814453125 L573.4054565429688,237.36167907714844 L572.7325439453125,237.09254455566406 L571.8735961914062,237.1660919189453 L570.90673828125,237.65049743652344 L569.9351196289062,238.5430145263672 L569.0872802734375,239.7904510498047 L568.4646606445312,241.28665161132812 L568.1589965820312,242.8644256591797 L568.2197265625,244.3628692626953 L568.6600341796875,245.6165313720703 L569.4703369140625,246.4936065673828 L570.6245727539062,246.896240234375 L572.0323486328125,246.77737426757812 L573.5468139648438,246.1245574951172 L574.9896240234375,244.99696350097656 L576.179931640625,243.522705078125 L576.9908447265625,241.88412475585938 L577.3723754882812,240.2892608642578 L577.3474731445312,238.92340087890625 L576.99951171875,237.891357421875 L576.4685668945312,237.22608947753906 L575.930419921875,236.9297332763672 L575.5394287109375,236.95150756835938 L575.3819580078125,237.21791076660156 L575.39990234375,237.5487823486328 L575.4898681640625,237.80783081054688 M581.5426025390625,236.9775390625 L581.4028930664062,236.79104614257812 L581.148193359375,236.65423583984375 L580.7861938476562,236.74005126953125 L580.3767700195312,237.2389373779297 L579.9609985351562,238.17474365234375 L579.5933837890625,239.4911346435547 L579.334716796875,241.06198120117188 L579.2371826171875,242.73033142089844 L579.3433837890625,244.2949981689453 L579.6837158203125,245.56800842285156 L580.2622680664062,246.3881378173828 L581.0634765625,246.6488494873047 L582.066162109375,246.30987548828125 L583.2032470703125,245.4001922607422 L584.3885498046875,244.0140380859375 L585.5179443359375,242.31944274902344 L586.5051879882812,240.53013610839844 L587.2847900390625,238.87327575683594 L587.8499145507812,237.51885986328125 L588.2019653320312,236.58895874023438 L588.3575439453125,236.1631317138672 L588.333740234375,236.2881622314453 L588.15478515625,236.97702026367188 L587.853515625,238.20135498046875 L587.5062255859375,239.816162109375 L587.195556640625,241.62399291992188 L586.9940795898438,243.4198455810547 L586.9801635742188,244.9674072265625 L587.1746826171875,246.09017944335938 L587.555419921875,246.7135467529297 L587.9583129882812,246.92884826660156 L588.2599487304688,246.91177368164062 M592.3177490234375,237.66172790527344 L592.329345703125,237.6864471435547 L592.3250732421875,237.9221954345703 L592.2841186523438,238.52456665039062 L592.1787109375,239.5698699951172 L592.0120239257812,240.96791076660156 L591.8172607421875,242.54234313964844 L591.63232421875,244.06031799316406 L591.4928588867188,245.3219757080078 L591.431396484375,246.18597412109375 L591.44189453125,246.5579833984375 L591.5390014648438,246.39686584472656 L591.7364501953125,245.68197631835938 L592.06103515625,244.4528350830078 L592.546142578125,242.84967041015625 L593.221923828125,241.0730438232422 L594.0703125,239.34149169921875 L595.0660400390625,237.8526611328125 L596.1340942382812,236.7263641357422 L597.196533203125,236.03855895996094 L598.1708984375,235.8419647216797 L598.994384765625,236.14627075195312 L599.6051635742188,236.91896057128906 L599.9760131835938,238.08444213867188 L600.1234741210938,239.57717895507812 L600.1160888671875,241.25286865234375 L600.0458984375,242.9470672607422 L599.9881591796875,244.28866577148438 L599.9666748046875,245.10598754882812 M611.4601440429688,241.05348205566406 L611.42431640625,240.55990600585938 L611.2371215820312,239.80276489257812 L610.7945556640625,238.9322052001953 L610.02001953125,238.20849609375 L608.9175415039062,237.75636291503906 L607.5652465820312,237.67141723632812 L606.0946044921875,237.9972686767578 L604.6844482421875,238.7642059326172 L603.5181274414062,239.92236328125 L602.7392578125,241.34695434570312 L602.4472045898438,242.86474609375 L602.689697265625,244.26455688476562 L603.439697265625,245.35704040527344 L604.6229248046875,245.98849487304688 L606.11279296875,246.03477478027344 L607.7521362304688,245.44387817382812 L609.405029296875,244.21934509277344 L610.9590454101562,242.42137145996094 L612.3367919921875,240.19825744628906 L613.4976806640625,237.73663330078125 L614.4385986328125,235.2328338623047 L615.163818359375,232.91354370117188 L615.6956787109375,230.9510498046875 L616.0521850585938,229.45945739746094 L616.259521484375,228.5178680419922 L616.3352661132812,228.17898559570312 L616.3004760742188,228.46893310546875 L616.1611328125,229.43109130859375 L615.92919921875,231.03262329101562 L615.6300659179688,233.15553283691406 L615.302978515625,235.626220703125 L614.9928588867188,238.26329040527344 L614.759765625,240.86964416503906 L614.657958984375,243.28317260742188 L614.7334594726562,245.37489318847656 L615.0195922851562,247.00245666503906 L615.4859008789062,248.0828094482422 L616.0609130859375,248.61814880371094 L616.5653076171875,248.76243591308594 L616.892333984375,248.7071075439453 " fill="none" stroke="black" stroke-linecap="round" stroke-width="2" /></svg>